<svg width="26" height="31" viewBox="0 0 26 31" fill="none" xmlns="http://www.w3.org/2000/svg">
<g clip-path="url(#clip0_23_860)">
<path d="M23.4946 20C23.4162 20.0001 23.3389 19.9792 23.2691 19.9391C23.1993 19.899 23.1391 19.8408 23.0934 19.7694C23.0553 19.7104 23.0281 19.6436 23.0131 19.5728C22.9982 19.502 22.996 19.4286 23.0065 19.3568C23.0171 19.285 23.0402 19.2163 23.0745 19.1545C23.1089 19.0928 23.1538 19.0393 23.2068 18.997C23.899 18.4423 24.5519 17.8284 25.1596 17.161C25.2058 17.1095 25.2606 17.0687 25.321 17.0411C25.3813 17.0135 25.4459 16.9995 25.5111 17C25.5763 17.0005 25.6408 17.0155 25.7007 17.0441C25.7607 17.0727 25.815 17.1143 25.8605 17.1665C25.9517 17.2714 26.0018 17.4126 26 17.5589C25.9981 17.7051 25.9444 17.8446 25.8507 17.9466C25.2066 18.6549 24.5144 19.3064 23.7805 19.8952C23.6973 19.9626 23.5974 19.9993 23.4946 20Z" fill="#E6D4C3"/>
<path d="M2.50173 19.9945C2.39872 19.9943 2.29835 19.9581 2.21471 19.8909C1.48055 19.3013 0.788377 18.6491 0.144393 17.9401C0.0519381 17.8368 0 17.6967 0 17.5507C0 17.4046 0.0519381 17.2645 0.144393 17.1613C0.236875 17.058 0.362292 17 0.493062 17C0.623832 17 0.749249 17.058 0.841731 17.1613C1.4492 17.8302 2.10213 18.4456 2.79467 19.002C2.87943 19.07 2.94267 19.1663 2.97529 19.2771C3.00791 19.3878 3.00824 19.5072 2.97622 19.6182C2.94421 19.7291 2.88149 19.8259 2.79711 19.8945C2.71274 19.9631 2.61104 20 2.50666 20L2.50173 19.9945Z" fill="#E6D4C3"/>
<path d="M15.4779 6C15.3394 6 15.2066 5.95008 15.1087 5.86121C15.0108 5.77234 14.9558 5.65182 14.9558 5.52614V2.72279C14.9558 2.25201 14.7497 1.80052 14.383 1.46763C14.0162 1.13473 13.5187 0.947718 13 0.947718C12.4813 0.947718 11.9838 1.13473 11.617 1.46763C11.2503 1.80052 11.0442 2.25201 11.0442 2.72279V5.52519C11.0442 5.65087 10.9892 5.7714 10.8913 5.86026C10.7934 5.94913 10.6606 5.99905 10.5221 5.99905C10.3836 5.99905 10.2508 5.94913 10.1529 5.86026C10.055 5.7714 10 5.65087 10 5.52519V2.72279C10 2.36523 10.0776 2.01117 10.2284 1.68082C10.3791 1.35048 10.6001 1.05032 10.8787 0.797488C11.1573 0.544653 11.488 0.344093 11.8519 0.20726C12.2159 0.0704271 12.606 0 13 0C13.394 0 13.7841 0.0704271 14.1481 0.20726C14.512 0.344093 14.8427 0.544653 15.1213 0.797488C15.3999 1.05032 15.6209 1.35048 15.7716 1.68082C15.9224 2.01117 16 2.36523 16 2.72279V5.52614C16 5.65182 15.945 5.77234 15.8471 5.86121C15.7492 5.95008 15.6164 6 15.4779 6Z" fill="#E6D4C3"/>
<path d="M13 5C13.9889 5 14.9556 5.29324 15.7778 5.84265C16.6001 6.39206 17.241 7.17295 17.6194 8.08658C17.9978 9.00021 18.0968 10.0055 17.9039 10.9755C17.711 11.9454 17.2348 12.8363 16.5355 13.5355C15.8363 14.2348 14.9454 14.711 13.9755 14.9039C13.0055 15.0968 12.0002 14.9978 11.0866 14.6194C10.173 14.241 9.39206 13.6001 8.84265 12.7778C8.29324 11.9556 8 10.9889 8 10C8.00151 8.67438 8.52878 7.40349 9.46614 6.46614C10.4035 5.52878 11.6744 5.00151 13 5ZM13 14.0469C13.8004 14.0469 14.5828 13.8095 15.2483 13.3649C15.9138 12.9202 16.4325 12.2881 16.7388 11.5487C17.0451 10.8092 17.1253 9.99551 16.9691 9.21049C16.813 8.42547 16.4276 7.70438 15.8616 7.13841C15.2956 6.57245 14.5745 6.18702 13.7895 6.03087C13.0045 5.87472 12.1908 5.95486 11.4513 6.26116C10.7118 6.56746 10.0798 7.08616 9.63513 7.75167C9.19045 8.41717 8.95311 9.1996 8.95311 10C8.95437 11.0729 9.38114 12.1015 10.1398 12.8602C10.8985 13.6189 11.9271 14.0456 13 14.0469Z" fill="#E6D4C3"/>
<path d="M25.5059 31H22.3439C22.2522 31 22.1623 30.9745 22.0843 30.9263C22.0063 30.8782 21.9432 30.8092 21.9022 30.7273L13.9822 14.8813C13.9508 14.823 13.9314 14.7591 13.9252 14.6932C13.919 14.6273 13.9261 14.5609 13.946 14.4978C13.966 14.4347 13.9984 14.3763 14.0413 14.3259C14.0843 14.2756 14.1369 14.2345 14.1961 14.2049C14.2553 14.1753 14.3198 14.1579 14.3859 14.1537C14.4519 14.1495 14.5181 14.1586 14.5805 14.1805C14.643 14.2024 14.7004 14.2366 14.7494 14.2811C14.7983 14.3256 14.8379 14.3795 14.8656 14.4396L22.6512 30.0119H25.0109V24.3675L17.082 8.51166C16.7031 7.7534 16.1205 7.11565 15.3995 6.66992C14.6785 6.22418 13.8476 5.98808 13 5.98808C12.1524 5.98808 11.3215 6.22418 10.6005 6.66992C9.87946 7.11565 9.29687 7.7534 8.91798 8.51166L0.988142 24.3675V30.0099H3.31522L11.1008 14.4396C11.1285 14.3795 11.1681 14.3256 11.217 14.2811C11.266 14.2366 11.3234 14.2024 11.3859 14.1805C11.4483 14.1586 11.5145 14.1495 11.5805 14.1537C11.6466 14.1579 11.7111 14.1753 11.7703 14.2049C11.8295 14.2345 11.8821 14.2756 11.9251 14.3259C11.968 14.3763 12.0004 14.4347 12.0204 14.4978C12.0403 14.5609 12.0474 14.6273 12.0412 14.6932C12.035 14.7591 12.0156 14.823 11.9842 14.8813L4.06225 30.7273C4.02118 30.8092 3.95811 30.8782 3.88011 30.9263C3.8021 30.9745 3.71223 31 3.62055 31H0.494071C0.363035 31 0.237366 30.9479 0.14471 30.8553C0.0520538 30.7626 0 30.637 0 30.5059V24.2529C5.14618e-06 24.1761 0.0179375 24.1003 0.0523715 24.0316L8.03459 8.06996C8.49552 7.14752 9.20427 6.37169 10.0814 5.82946C10.9585 5.28722 11.9693 5 13.0005 5C14.0317 5 15.0425 5.28722 15.9196 5.82946C16.7967 6.37169 17.5055 7.14752 17.9664 8.06996L25.9476 24.0316C25.9821 24.1003 26 24.1761 26 24.2529V30.5059C26 30.637 25.9479 30.7626 25.8553 30.8553C25.7626 30.9479 25.637 31 25.5059 31Z" fill="#E6D4C3"/>
<path d="M12.5324 23C10.7738 22.999 9.02551 22.6942 7.3465 22.0958C7.28446 22.0741 7.22681 22.0385 7.1769 21.9911C7.12698 21.9437 7.0858 21.8854 7.05574 21.8197C7.02568 21.7539 7.00734 21.6819 7.00179 21.6079C6.99625 21.534 7.0036 21.4595 7.02342 21.3888C7.06298 21.2479 7.14963 21.1307 7.26445 21.0627C7.37928 20.9947 7.51295 20.9814 7.63629 21.0258C10.8113 22.1587 14.2119 22.1633 17.3893 21.0392C17.5114 21.0035 17.6409 21.0231 17.7508 21.0939C17.8606 21.1647 17.9423 21.2813 17.9789 21.4194C18.0155 21.5575 18.0042 21.7064 17.9472 21.8351C17.8903 21.9638 17.7921 22.0624 17.6732 22.1104C16.008 22.6987 14.2752 22.9985 12.5324 23Z" fill="#E6D4C3"/>
<path d="M12.5 10C12.4011 10 12.3044 9.97068 12.2222 9.91573C12.14 9.86079 12.0759 9.7827 12.0381 9.69134C12.0002 9.59998 11.9903 9.49945 12.0096 9.40245C12.0289 9.30546 12.0765 9.21637 12.1464 9.14645C12.2164 9.07652 12.3055 9.0289 12.4025 9.00961C12.4994 8.99031 12.6 9.00022 12.6913 9.03806C12.7827 9.0759 12.8608 9.13999 12.9157 9.22222C12.9707 9.30444 13 9.40111 13 9.5C12.9998 9.63254 12.947 9.75958 12.8533 9.8533C12.7596 9.94702 12.6325 9.99977 12.5 10Z" fill="#E6D4C3"/>
</g>
<defs>
<clipPath id="clip0_23_860">
<rect width="26" height="31" fill="white"/>
</clipPath>
</defs>
</svg>
