<svg width="37" height="37" viewBox="0 0 37 37" fill="none" xmlns="http://www.w3.org/2000/svg">
<g clip-path="url(#clip0_26_1032)">
<path d="M36.9707 19.061C36.8985 18.8325 36.7004 18.6662 36.4638 18.6326L31.6213 17.9544L29.4585 13.7322C29.2455 13.3162 28.563 13.3162 28.3506 13.7322L26.1884 17.9544L21.3453 18.6326C21.1081 18.6662 20.9106 18.8319 20.8384 19.061C20.7662 19.2902 20.8309 19.5393 21.0059 19.7031L24.4964 22.9831L23.6738 27.6083C23.6327 27.8405 23.7261 28.0766 23.9154 28.2173C24.025 28.2989 24.1558 28.34 24.2872 28.34C24.3831 28.34 24.4802 28.3182 24.5687 28.2727L28.9055 26.0757L33.2429 28.2727C33.4528 28.3811 33.7063 28.3587 33.8962 28.2173C34.0855 28.0759 34.1789 27.8412 34.1378 27.6083L33.3146 22.9831L36.8051 19.7031C36.9782 19.5387 37.043 19.2896 36.9707 19.061ZM32.2142 22.3062C32.061 22.45 31.9906 22.6618 32.0273 22.8685L32.6906 26.5969L29.1851 24.8208C29.0961 24.776 29.0001 24.7536 28.9036 24.7536C28.8071 24.7536 28.7106 24.776 28.6221 24.8208L25.1173 26.5969L25.7799 22.8685C25.8173 22.6618 25.7463 22.45 25.5931 22.3062L22.8038 19.6863L26.6804 19.1432C26.8809 19.1152 27.0559 18.9913 27.1481 18.8107L28.903 15.3831L30.6585 18.8107C30.7507 18.9913 30.9257 19.1152 31.1262 19.1432L35.0022 19.6863L32.2142 22.3062Z" fill="#E6D4C3"/>
<path d="M23.9722 8.99435C23.9722 10.3457 25.0719 11.4449 26.4233 11.4449C27.7747 11.4449 28.8738 10.3457 28.8738 8.99435C28.8738 7.64299 27.7747 6.54321 26.4233 6.54321C25.0719 6.54321 23.9722 7.64299 23.9722 8.99435ZM27.6277 8.99435C27.6277 9.6582 27.0872 10.1994 26.4227 10.1994C25.7582 10.1994 25.217 9.65882 25.217 8.99435C25.217 8.32988 25.7576 7.78871 26.4227 7.78871C27.0872 7.78871 27.6277 8.32926 27.6277 8.99435Z" fill="#E6D4C3"/>
<path d="M20.0033 2.18397H27.6955L33.8863 8.36102V16.392H35.1318V7.84414L28.2099 0.938477H19.4889L3.73338 16.6423L3.73898 16.6473L0 20.3763L15.6515 36.0615L20.4554 31.4613L5.5051 16.6448L20.0033 2.18397ZM18.6706 31.4457L15.6709 34.3184L1.76113 20.3788L4.62329 17.5241L18.6706 31.4457Z" fill="#E6D4C3"/>
</g>
<defs>
<clipPath id="clip0_26_1032">
<rect width="37" height="37" fill="white"/>
</clipPath>
</defs>
</svg>
