<svg width="31" height="31" viewBox="0 0 31 31" fill="none" xmlns="http://www.w3.org/2000/svg">
<g clip-path="url(#clip0_25_974)">
<path d="M29.1651 5.30763L15.6747 0.0311579C15.6522 0.0220701 15.6292 0.0244306 15.6062 0.0191786C15.5706 0.010563 15.5361 0 15.4991 0C15.4608 0 15.4257 0.010563 15.3893 0.0196507C15.3677 0.0249027 15.3461 0.0230143 15.325 0.0311579L15.3068 0.0383572L1.83416 5.30763C1.60968 5.39592 1.49744 5.63379 1.55067 5.86216C1.53774 5.90536 1.52954 5.95044 1.52954 5.99694V23.3253C1.52954 23.5022 1.62738 23.6653 1.78329 23.7488L15.2742 30.944C15.2962 30.9555 15.3197 30.9622 15.3427 30.9704C15.3547 30.9747 15.3662 30.9805 15.3787 30.9838C15.4186 30.9939 15.4593 31.0001 15.5001 31.0001C15.5409 31.0001 15.5817 30.9939 15.6215 30.9838C15.634 30.9805 15.6455 30.9742 15.6575 30.9704C15.6805 30.9622 15.704 30.956 15.7261 30.944L29.217 23.7488C29.3733 23.6654 29.4707 23.5023 29.4707 23.3253V5.99688C29.4707 5.95038 29.4621 5.90577 29.4496 5.8621C29.5023 5.63426 29.3901 5.39586 29.1651 5.30763ZM15.4997 11.7046L2.94746 5.90241L15.5001 0.993393L28.0523 5.90241L15.4997 11.7046ZM2.48841 6.74762L15.0199 12.5397V29.7208L2.48841 23.0379V6.74762ZM28.5108 23.0379L15.9793 29.7208V12.5397L28.5108 6.74756V23.0379Z" fill="#E6D4C3"/>
</g>
<defs>
<clipPath id="clip0_25_974">
<rect width="31" height="31" fill="white"/>
</clipPath>
</defs>
</svg>
