<svg width="47" height="47" viewBox="0 0 47 47" fill="none" xmlns="http://www.w3.org/2000/svg">
<path d="M47 23.184C47 16.4648 41.5341 10.9988 34.8148 10.9988C28.0956 10.9988 22.6296 16.4648 22.6296 23.184C22.6296 28.9433 17.9444 33.6285 12.1852 33.6285C6.42594 33.6285 1.74074 28.9433 1.74074 23.184C1.74074 17.7486 5.91504 13.2749 11.2252 12.7883L8.43737 17.6163C8.19715 18.0332 8.33989 18.565 8.75593 18.8052C8.89345 18.8844 9.04315 18.9218 9.19024 18.9218C9.49139 18.9218 9.78383 18.766 9.94485 18.4866L13.6021 12.1521C13.8424 11.736 13.6996 11.2034 13.2836 10.9632L6.94904 7.30586C6.53126 7.06563 6.00033 7.20838 5.76011 7.62441C5.51989 8.04132 5.66263 8.57312 6.07867 8.81334L10.1755 11.179C4.41191 12.1416 0 17.1506 0 23.184C0 29.9033 5.46593 35.3692 12.1852 35.3692C18.9044 35.3692 24.3704 29.9033 24.3704 23.184C24.3704 17.4248 29.0556 12.7396 34.8148 12.7396C40.5741 12.7396 45.2593 17.4248 45.2593 23.184C45.2593 28.7875 40.8195 33.3621 35.2744 33.605L37.7114 29.3837C37.9516 28.9668 37.8089 28.435 37.3929 28.1947C36.9751 27.9537 36.4441 28.0973 36.2039 28.5133L32.5466 34.8479C32.3064 35.2648 32.4491 35.7966 32.8652 36.0368L39.1997 39.6941C39.3373 39.7733 39.487 39.8107 39.6341 39.8107C39.9352 39.8107 40.2276 39.6549 40.3887 39.3755C40.6289 38.9586 40.4861 38.4268 40.0701 38.1866L35.1595 35.3518C41.7186 35.1664 47 29.7867 47 23.184Z" fill="#402020"/>
</svg>
