<svg width="46" height="47" viewBox="0 0 46 47" fill="none" xmlns="http://www.w3.org/2000/svg">
<g clip-path="url(#clip0_82_102)">
<path d="M6.47774 1.1934C4.8875 1.53305 3.46797 2.31332 2.32695 3.47914C1.36563 4.46137 0.772656 5.47113 0.305469 6.8848L0.0449219 7.66508L0.0179688 23.3256L0 38.977L0.215625 39.8582C0.601953 41.428 1.36563 42.7131 2.5875 43.8881C3.38711 44.6592 4.13281 45.1366 5.13906 45.5313C6.59453 46.1096 5.70508 46.0821 24.5633 46.0821C43.4305 46.0821 42.2625 46.1096 43.4215 45.5221C44.1402 45.1457 45.1645 44.1084 45.4969 43.4108C46.018 42.3 46 42.9518 46 29.9075V17.9096L45.7664 17.726C45.434 17.4598 45.1375 17.4873 44.8231 17.7995L44.5625 18.0657V27.7686V37.4715L44.2301 37.1961C43.2059 36.3791 41.7953 35.9844 40.5195 36.168C39.5492 36.3057 38.9113 36.5995 37.932 37.3246L37.7344 37.4807L37.7523 24.6383L37.7793 11.7959L38.0668 11.1809C38.7855 9.62953 40.4027 8.81254 41.957 9.21644C42.9902 9.49183 43.8258 10.1987 44.284 11.1901C44.5086 11.6858 44.5176 11.7684 44.5445 13.586C44.5535 14.6233 44.5895 15.5596 44.6074 15.6789C44.7332 16.2114 45.3262 16.4133 45.7664 16.0553L46 15.8717V13.8338C46 11.6307 45.9371 11.2268 45.4969 10.3088C45.1465 9.56527 44.2391 8.62894 43.4934 8.22504C42.0199 7.43559 40.3039 7.42641 38.8664 8.18832C38.1656 8.56469 37.2223 9.52855 36.8539 10.2446C36.3867 11.1717 36.2969 11.7317 36.2969 14.0174V16.0645H26.2344H16.1719V12.7323C16.1719 10.9055 16.127 9.01449 16.082 8.52797C15.7676 5.20492 13.5754 2.45102 10.4219 1.41371C9.74805 1.1934 9.4875 1.16586 8.26563 1.13832C7.50195 1.11996 6.69336 1.1475 6.47774 1.1934ZM9.46055 2.71723C9.81992 2.79984 10.4758 3.03852 10.916 3.25883C12.3266 3.95649 13.2879 4.93871 13.9707 6.37992C14.6715 7.87621 14.6445 7.33461 14.6445 18.1299V27.7411L14.9051 28.0073C15.2285 28.3377 15.534 28.3469 15.8754 28.0532L16.127 27.8328L16.1539 22.7289L16.1809 17.625H26.2344H36.2969V29.6688C36.2969 42.6305 36.2879 42.3092 36.7551 43.2639C36.8629 43.475 37.1055 43.8698 37.2941 44.136L37.6535 44.6133H25.2012H12.7488L13.5574 43.8239C14.8152 42.603 15.6059 41.1985 15.9652 39.5002C16.109 38.876 16.127 38.2151 16.127 34.3963V29.9993L15.8754 29.7789C15.5969 29.5403 15.3902 29.5036 15.0668 29.6596C14.7074 29.8248 14.6445 30.1094 14.6445 31.569V32.9184L13.7281 32.0004C13.198 31.468 12.5512 30.9264 12.2188 30.7245C9.59531 29.1731 6.45977 29.1823 3.83633 30.7612C3.43203 30.9998 2.86602 31.4772 2.31797 32.0463L1.4375 32.9459V20.7094C1.4375 8.79418 1.44648 8.45453 1.61719 7.7477C2.22813 5.27836 4.11484 3.34145 6.48672 2.74477C7.31328 2.54281 8.61602 2.52445 9.46055 2.71723ZM9.17305 31.1559C10.5207 31.4037 11.6348 32.0096 12.677 33.0469C13.4496 33.8272 13.9797 34.6809 14.348 35.7549C14.5727 36.4067 14.5996 36.6178 14.5996 37.6827C14.5996 38.876 14.5996 38.876 14.2672 39.592C13.6563 40.9047 12.5152 41.7952 11.1406 42.0522C9.13711 42.4102 7.0707 41.1067 6.45977 39.0963C6.30703 38.5914 6.28906 38.2151 6.28906 34.9196V31.312L6.63047 31.2202C7.41211 31.009 8.24766 30.9907 9.17305 31.1559ZM4.96836 39.3166C5.72305 41.9787 8.05 43.7137 10.7004 43.5852C11.1406 43.5668 11.5 43.5577 11.5 43.576C11.5 43.5944 11.2035 43.7504 10.8531 43.9248C8.80469 44.9162 6.60352 44.7969 4.60898 43.5944C3.88125 43.1537 2.79414 42.0246 2.35391 41.2627C2.15625 40.9047 1.87773 40.2897 1.73398 39.8858C1.50039 39.2065 1.48242 39.0412 1.48242 37.8203C1.49141 36.6086 1.50938 36.425 1.73398 35.7549C2.21016 34.3688 3.01875 33.2305 4.13281 32.3952L4.7168 31.9545L4.7707 35.3694C4.80664 38.1692 4.85156 38.876 4.96836 39.3166ZM42.6129 37.9489C43.2598 38.2702 43.8617 38.8852 44.2301 39.6012C44.4996 40.1245 44.5176 40.2254 44.5176 41.0791C44.5176 41.8961 44.4906 42.0522 44.266 42.5112C43.8977 43.2914 43.3856 43.8239 42.6758 44.1911C41.9211 44.5674 41.2742 44.6684 40.5555 44.5215C39.4234 44.2828 38.5609 43.5852 38.0668 42.5203C37.8152 41.9787 37.7793 41.8135 37.7883 41.125C37.7883 39.5645 38.5789 38.417 40.0523 37.8112C40.7082 37.5358 41.9301 37.6092 42.6129 37.9489Z" fill="#402020"/>
<path d="M28.9656 19.2223C28.8129 19.2957 28.6602 19.415 28.6242 19.5068C28.5973 19.5895 28.5703 21.2877 28.5703 23.2797V26.8965H24.2219H19.8645L19.8375 24.9229C19.8105 23.0318 19.8016 22.9492 19.6129 22.7473C19.3164 22.4443 18.8133 22.4719 18.5437 22.8023L18.3281 23.0502V32.0004V40.9598L18.5887 41.226L18.8492 41.4922H25.7312C30.5738 41.4922 32.6672 41.4646 32.8199 41.3912C33.2422 41.1984 33.359 40.6568 33.0535 40.2621L32.8738 40.0234H26.3602H19.8555V34.1943V28.3652H21.4277H23V30.4123C23 32.6889 23 32.7072 23.6109 32.8266C23.8445 32.8725 23.9344 32.8357 24.168 32.6063L24.4375 32.3309V30.348V28.3652H26.5039H28.5703V31.9729V35.5896L28.777 35.7824C29.0645 36.0578 29.5586 36.0486 29.8102 35.7732C29.9898 35.5713 30.0078 35.4703 30.0078 34.2586V32.9551H32.0742C34.0238 32.9551 34.1496 32.9459 34.3203 32.7715C34.5988 32.4869 34.5629 31.9178 34.2664 31.6791C34.0418 31.4955 33.916 31.4863 32.0203 31.4863H30.0078V25.5195C30.0078 19.6721 30.0078 19.5527 29.8281 19.3691C29.7293 19.2682 29.6125 19.1855 29.5676 19.1855C29.5227 19.1855 29.4328 19.1672 29.3609 19.1396C29.298 19.1213 29.1184 19.158 28.9656 19.2223Z" fill="#402020"/>
</g>
<defs>
<clipPath id="clip0_82_102">
<rect width="46" height="47" fill="white"/>
</clipPath>
</defs>
</svg>
