<svg width="39" height="39" viewBox="0 0 39 39" fill="none" xmlns="http://www.w3.org/2000/svg">
<path d="M38.3276 27.9052C36.9722 27.9052 36.2646 28.3096 35.6403 28.6662C35.092 28.9795 34.6185 29.25 33.6202 29.25C32.6219 29.25 32.1484 28.9795 31.6001 28.6662C30.9757 28.3096 30.2682 27.9052 28.9128 27.9052C27.5575 27.9052 26.85 28.3096 26.2258 28.6662C25.6776 28.9795 25.2042 29.25 24.2061 29.25C23.2079 29.25 22.7344 28.9795 22.1862 28.6662C21.562 28.3096 20.8545 27.9052 19.4992 27.9052C18.1439 27.9052 17.4364 28.3096 16.8122 28.6662C16.264 28.9795 15.7906 29.25 14.7925 29.25C13.7944 29.25 13.321 28.9795 12.7728 28.6663C12.1487 28.3096 11.4411 27.9052 10.0859 27.9052C9.83195 27.9052 9.60072 27.9194 9.38858 27.9449V24.5599H15.4571V26.6108C15.4571 26.9821 15.7582 27.2832 16.1295 27.2832C16.5009 27.2832 16.8019 26.9821 16.8019 26.6108V11.1117C16.8019 8.76157 18.0115 6.68961 19.8401 5.48271C21.7419 6.73651 22.8705 8.82427 22.8705 11.1117C22.8705 11.483 23.1715 11.7841 23.5429 11.7841C23.9142 11.7841 24.2153 11.483 24.2153 11.1117C24.2153 8.61893 23.0978 6.3244 21.1831 4.79794C21.9179 4.52242 22.7129 4.37071 23.5429 4.37071C27.2599 4.37071 30.2838 7.39472 30.2838 11.1117C30.2838 11.483 30.5849 11.7841 30.9562 11.7841C31.3276 11.7841 31.6287 11.483 31.6287 11.1117C31.6287 6.65313 28.0014 3.02588 23.5429 3.02588C19.0844 3.02588 15.4571 6.65313 15.4571 11.1117V12.4061H9.38858V11.1117C9.38858 7.39464 12.4126 4.37071 16.1295 4.37071C16.2847 4.37071 16.4418 4.376 16.5964 4.38659C16.9676 4.41206 17.2878 4.13208 17.3131 3.7615C17.3384 3.39108 17.0586 3.07009 16.6881 3.04487C16.5031 3.03227 16.3151 3.02588 16.1295 3.02588C11.671 3.02588 8.04375 6.65313 8.04375 11.1117V28.3235C7.80798 28.4327 7.59895 28.5518 7.3989 28.6661C6.85064 28.9795 6.37726 29.25 5.37906 29.25C4.38094 29.25 3.90756 28.9795 3.35938 28.6662C2.73521 28.3096 2.02766 27.9052 0.672414 27.9052C0.301073 27.9052 0 28.2063 0 28.5776C0 28.9489 0.301073 29.25 0.672414 29.25C1.67053 29.25 2.14391 29.5206 2.69209 29.8338C3.31634 30.1905 4.02381 30.5948 5.37906 30.5948C6.73439 30.5948 7.44186 30.1905 8.06611 29.8338C8.61429 29.5205 9.08776 29.25 10.0859 29.25C11.084 29.25 11.5574 29.5206 12.1055 29.8338C12.7297 30.1905 13.4373 30.5948 14.7924 30.5948C16.1477 30.5948 16.8552 30.1905 17.4794 29.8338C18.0276 29.5205 18.501 29.25 19.4991 29.25C20.4972 29.25 20.9707 29.5206 21.5189 29.8338C22.1432 30.1905 22.8506 30.5948 24.206 30.5948C25.5612 30.5948 26.2688 30.1905 26.8929 29.8338C27.4411 29.5205 27.9146 29.25 28.9127 29.25C29.911 29.25 30.3845 29.5206 30.9328 29.8338C31.5571 30.1905 32.2647 30.5948 33.6201 30.5948C34.9755 30.5948 35.6831 30.1905 36.3074 29.8338C36.8558 29.5206 37.3293 29.25 38.3276 29.25C38.6989 29.25 39 28.9489 39 28.5776C39 28.2063 38.6989 27.9052 38.3276 27.9052ZM9.38858 23.2151V19.1554H15.4571V23.2151H9.38858ZM15.4571 13.7509V17.8106H9.38858V13.7509H15.4571Z" fill="#E6D4C3"/>
<path d="M33.6201 31.9397C32.6218 31.9397 32.1483 31.6691 31.6 31.3559C30.9756 30.9992 30.2681 30.5948 28.9127 30.5948C27.5574 30.5948 26.8499 30.9992 26.2257 31.3559C25.6775 31.6692 25.2041 31.9397 24.206 31.9397C23.2078 31.9397 22.7343 31.6691 22.1861 31.3559C21.5619 30.9992 20.8543 30.5948 19.4991 30.5948C18.1438 30.5948 17.4363 30.9992 16.8121 31.3559C16.2639 31.6691 15.7905 31.9397 14.7924 31.9397C13.7943 31.9397 13.3209 31.6691 12.7727 31.3559C12.1486 30.9992 11.441 30.5948 10.0858 30.5948C8.73052 30.5948 8.02297 30.9992 7.39872 31.3559C6.85053 31.6691 6.37715 31.9397 5.37896 31.9397C5.00762 31.9397 4.70654 32.2407 4.70654 32.6121C4.70654 32.9834 5.00762 33.2845 5.37896 33.2845C6.73429 33.2845 7.44175 32.8801 8.06601 32.5235C8.61419 32.2102 9.08766 31.9397 10.0858 31.9397C11.0839 31.9397 11.5573 32.2102 12.1054 32.5235C12.7296 32.8801 13.4372 33.2845 14.7923 33.2845C16.1476 33.2845 16.855 32.8801 17.4793 32.5235C18.0275 32.2102 18.5009 31.9397 19.499 31.9397C20.4972 31.9397 20.9706 32.2102 21.5188 32.5235C22.1431 32.8801 22.8506 33.2845 24.2059 33.2845C25.5611 33.2845 26.2687 32.8801 26.8928 32.5235C27.441 32.2102 27.9145 31.9397 28.9126 31.9397C29.9109 31.9397 30.3844 32.2102 30.9327 32.5235C31.557 32.8801 32.2646 33.2845 33.62 33.2845C33.9913 33.2845 34.2924 32.9834 34.2924 32.6121C34.2924 32.2407 33.9914 31.9397 33.6201 31.9397Z" fill="#E6D4C3"/>
<path d="M28.9129 33.2845C27.5577 33.2845 26.8501 33.6889 26.2259 34.0455C25.6778 34.3589 25.2043 34.6294 24.2062 34.6294C23.208 34.6294 22.7345 34.3588 22.1863 34.0455C21.5621 33.6889 20.8545 33.2845 19.4993 33.2845C18.144 33.2845 17.4365 33.6889 16.8123 34.0455C16.2641 34.3588 15.7907 34.6294 14.7926 34.6294C13.7945 34.6294 13.3211 34.3588 12.773 34.0456C12.1488 33.6889 11.4412 33.2845 10.086 33.2845C9.71465 33.2845 9.41357 33.5856 9.41357 33.957C9.41357 34.3283 9.71465 34.6294 10.086 34.6294C11.0841 34.6294 11.5575 34.8999 12.1057 35.2132C12.7298 35.5698 13.4374 35.9742 14.7925 35.9742C16.1478 35.9742 16.8553 35.5698 17.4795 35.2132C18.0277 34.8999 18.5012 34.6294 19.4992 34.6294C20.4974 34.6294 20.9709 34.8999 21.519 35.2132C22.1433 35.5698 22.8508 35.9742 24.2061 35.9742C25.5613 35.9742 26.2689 35.5698 26.8931 35.2132C27.4412 34.8999 27.9147 34.6294 28.9128 34.6294C29.2842 34.6294 29.5852 34.3283 29.5852 33.957C29.5852 33.5856 29.2842 33.2845 28.9129 33.2845Z" fill="#E6D4C3"/>
</svg>
