<svg width="33" height="30" viewBox="0 0 33 30" fill="none" xmlns="http://www.w3.org/2000/svg">
<g clip-path="url(#clip0_23_924)">
<path d="M4.03164 30.0009C3.90605 30.0009 3.78561 29.9501 3.6968 29.8596C3.608 29.7691 3.55811 29.6463 3.55811 29.5184V13.187C3.55811 13.059 3.608 12.9363 3.6968 12.8458C3.78561 12.7553 3.90605 12.7045 4.03164 12.7045C4.15724 12.7045 4.27768 12.7553 4.36649 12.8458C4.45529 12.9363 4.50518 13.059 4.50518 13.187V29.5184C4.50518 29.6463 4.45529 29.7691 4.36649 29.8596C4.27768 29.9501 4.15724 30.0009 4.03164 30.0009Z" fill="#E6D4C3"/>
<path d="M28.9682 30.0009C28.8426 30.0009 28.7221 29.9501 28.6333 29.8596C28.5445 29.7691 28.4946 29.6463 28.4946 29.5184V13.187C28.4946 13.059 28.5445 12.9363 28.6333 12.8458C28.7221 12.7553 28.8426 12.7045 28.9682 12.7045C29.0938 12.7045 29.2142 12.7553 29.303 12.8458C29.3918 12.9363 29.4417 13.059 29.4417 13.187V29.5184C29.4417 29.6463 29.3918 29.7691 29.303 29.8596C29.2142 29.9501 29.0938 30.0009 28.9682 30.0009Z" fill="#E6D4C3"/>
<path d="M20.0609 29.9991C19.9353 29.9991 19.8149 29.9482 19.7261 29.8577C19.6373 29.7673 19.5874 29.6445 19.5874 29.5165V22.259C19.5874 21.4246 19.2621 20.6243 18.6831 20.0343C18.104 19.4443 17.3187 19.1128 16.4999 19.1128C15.681 19.1128 14.8957 19.4443 14.3167 20.0343C13.7377 20.6243 13.4124 21.4246 13.4124 22.259V29.5165C13.4124 29.6445 13.3625 29.7673 13.2737 29.8577C13.1849 29.9482 13.0645 29.9991 12.9389 29.9991C12.8133 29.9991 12.6928 29.9482 12.604 29.8577C12.5152 29.7673 12.4653 29.6445 12.4653 29.5165V22.259C12.4653 21.1686 12.8904 20.1229 13.647 19.3519C14.4037 18.5809 15.4299 18.1477 16.4999 18.1477C17.5699 18.1477 18.5961 18.5809 19.3527 19.3519C20.1094 20.1229 20.5344 21.1686 20.5344 22.259V29.5165C20.5344 29.6445 20.4845 29.7673 20.3957 29.8577C20.3069 29.9482 20.1865 29.9991 20.0609 29.9991Z" fill="#E6D4C3"/>
<path d="M32.5265 30H0.473539C0.347949 30 0.227502 29.9492 0.138696 29.8587C0.0498906 29.7682 0 29.6454 0 29.5175C0 29.3895 0.0498906 29.2667 0.138696 29.1762C0.227502 29.0858 0.347949 29.0349 0.473539 29.0349H32.5265C32.6521 29.0349 32.7725 29.0858 32.8613 29.1762C32.9501 29.2667 33 29.3895 33 29.5175C33 29.6454 32.9501 29.7682 32.8613 29.8587C32.7725 29.9492 32.6521 30 32.5265 30Z" fill="#E6D4C3"/>
<path d="M28.8407 13.6677C28.0199 13.69 27.2077 13.493 26.4848 13.0963C25.7618 12.6996 25.1534 12.117 24.7199 11.4065C24.2891 12.1147 23.6842 12.6959 22.965 13.0926C22.2459 13.4892 21.4375 13.6874 20.62 13.6677C19.7981 13.6888 18.9851 13.4893 18.2627 13.0892C17.5402 12.6891 16.9337 12.1025 16.504 11.3881C16.075 12.1024 15.4693 12.6893 14.7475 13.0899C14.0258 13.4905 13.2134 13.6907 12.3918 13.6706C11.5738 13.6904 10.7648 13.4918 10.0453 13.0947C9.32577 12.6975 8.72066 12.1155 8.29003 11.4065C7.85584 12.1181 7.2464 12.7016 6.52231 13.0988C5.79822 13.496 4.9847 13.6931 4.16266 13.6706C3.4432 13.6753 2.73468 13.4911 2.10534 13.1358C1.476 12.7805 0.947054 12.266 0.569444 11.6419C0.22675 11.0735 0.0333317 10.4248 0.00778881 9.75822C-0.0177541 9.09161 0.125437 8.42951 0.423594 7.8356L3.17202 2.31622C3.53908 1.61206 4.08847 1.02387 4.76052 0.615517C5.43257 0.207169 6.20157 -0.00571489 6.98401 -1.03653e-05H26.0203C26.8027 -0.00571489 27.5717 0.207169 28.2438 0.615517C28.9158 1.02387 29.4652 1.61206 29.8323 2.31622L32.5788 7.83078C32.8771 8.42481 33.0204 9.08708 32.9949 9.75388C32.9693 10.4207 32.7758 11.0696 32.4329 11.6381C32.0556 12.2614 31.5272 12.7752 30.8985 13.1301C30.2699 13.4851 29.5622 13.6692 28.8435 13.6648L28.8407 13.6677ZM6.98401 0.965085C6.37592 0.958963 5.77782 1.12279 5.2547 1.43875C4.73158 1.75472 4.30344 2.21074 4.01681 2.75727L1.26839 8.27182C1.04044 8.7184 0.93068 9.21782 0.949945 9.72081C0.969211 10.2238 1.11683 10.713 1.37825 11.1401C1.67255 11.6227 2.08384 12.02 2.57251 12.2936C3.06118 12.5673 3.61077 12.7081 4.16834 12.7026C6.16952 12.7026 7.80417 11.3341 7.80891 9.65191V9.57374C7.80891 9.44576 7.8588 9.32302 7.94761 9.23253C8.03641 9.14203 8.15686 9.09119 8.28245 9.09119C8.40804 9.09119 8.52849 9.14203 8.61729 9.23253C8.7061 9.32302 8.75599 9.44576 8.75599 9.57374C8.75599 11.2984 10.3888 12.7016 12.3947 12.7016C14.4006 12.7016 16.0333 11.2984 16.0333 9.57374C16.0333 9.44576 16.0832 9.32302 16.172 9.23253C16.2608 9.14203 16.3813 9.09119 16.5069 9.09119C16.6325 9.09119 16.7529 9.14203 16.8417 9.23253C16.9305 9.32302 16.9804 9.44576 16.9804 9.57374C16.9804 11.2984 18.6132 12.7016 20.6191 12.7016C22.625 12.7016 24.2578 11.2984 24.2578 9.57374C24.2578 9.44576 24.3077 9.32302 24.3965 9.23253C24.4853 9.14203 24.6057 9.09119 24.7313 9.09119C24.8569 9.09119 24.9773 9.14203 25.0661 9.23253C25.155 9.32302 25.2048 9.44576 25.2048 9.57374V9.65095C25.2048 11.3321 26.8357 12.6997 28.8416 12.7006C29.3984 12.7054 29.947 12.5641 30.4348 12.2905C30.9226 12.0169 31.3331 11.6201 31.627 11.1382C31.8884 10.7111 32.036 10.2219 32.0553 9.71888C32.0746 9.21589 31.9648 8.71647 31.7368 8.2699L28.9818 2.75727C28.6953 2.21103 28.2675 1.7552 27.7447 1.43925C27.222 1.12331 26.6243 0.959317 26.0165 0.965085H6.98401Z" fill="#E6D4C3"/>
</g>
<defs>
<clipPath id="clip0_23_924">
<rect width="33" height="30" fill="white"/>
</clipPath>
</defs>
</svg>
