<svg width="46" height="46" viewBox="0 0 46 46" fill="none" xmlns="http://www.w3.org/2000/svg">
<path d="M18.6875 20.125C19.4814 20.125 20.125 19.4814 20.125 18.6875C20.125 17.8936 19.4814 17.25 18.6875 17.25C17.8936 17.25 17.25 17.8936 17.25 18.6875C17.25 19.4814 17.8936 20.125 18.6875 20.125Z" stroke="#52B69A" stroke-width="2" stroke-miterlimit="10" stroke-linecap="round" stroke-linejoin="round"/>
<path d="M10.0625 30.1875L23 23L28.75 27.3125L35.9375 23" stroke="#52B69A" stroke-width="2" stroke-miterlimit="10" stroke-linecap="round" stroke-linejoin="round"/>
<path d="M35.9375 11.5H10.0625V34.5H35.9375V11.5Z" stroke="#52B69A" stroke-width="2" stroke-miterlimit="10" stroke-linecap="round" stroke-linejoin="round"/>
<path d="M18.6875 7.1875L23 2.875L27.3125 7.1875" stroke="#52B69A" stroke-width="2" stroke-miterlimit="10" stroke-linecap="round" stroke-linejoin="round"/>
<path d="M27.3125 38.8125L23 43.125L18.6875 38.8125" stroke="#52B69A" stroke-width="2" stroke-miterlimit="10" stroke-linecap="round" stroke-linejoin="round"/>
<path d="M5.75 27.3125L1.4375 23L5.75 18.6875" stroke="#52B69A" stroke-width="2" stroke-miterlimit="10" stroke-linecap="round" stroke-linejoin="round"/>
<path d="M40.25 18.6875L44.5625 23L40.25 27.3125" stroke="#52B69A" stroke-width="2" stroke-miterlimit="10" stroke-linecap="round" stroke-linejoin="round"/>
</svg>
