<svg width="35" height="35" viewBox="0 0 35 35" fill="none" xmlns="http://www.w3.org/2000/svg">
<g clip-path="url(#clip0_19_838)">
<path d="M34.9548 33.018L31.3267 20.303C31.1827 19.7986 30.7218 19.4509 30.1974 19.4509H19.52L20.6574 13.7642C22.9917 12.6315 24.6053 10.2373 24.6053 7.47309C24.6053 3.62002 21.4706 0.485107 17.6174 0.485107C13.7642 0.485107 10.6294 3.62002 10.6294 7.47309C10.6294 10.2373 12.2429 12.6314 14.5774 13.7642L15.7147 19.4509H4.80247C4.27806 19.4509 3.81716 19.7986 3.67316 20.303L0.0450601 33.018C-0.0559332 33.3723 0.0148918 33.7535 0.236912 34.0476C0.458814 34.3418 0.805868 34.5148 1.17437 34.5148H33.8255C34.194 34.5148 34.541 34.3418 34.7629 34.0476C34.985 33.7535 35.0559 33.3721 34.9548 33.018ZM12.9783 7.47309C12.9783 4.91514 15.0594 2.83411 17.6174 2.83411C20.1754 2.83411 22.2564 4.91514 22.2564 7.47309C22.2564 10.031 20.1754 12.1122 17.6174 12.1122C15.0594 12.1122 12.9783 10.031 12.9783 7.47309ZM17.6174 14.4611C17.7888 14.4611 17.9583 14.4527 18.1266 14.4406L17.6174 16.9872L17.1081 14.4406C17.2764 14.4527 17.446 14.4611 17.6174 14.4611ZM16.1845 21.7996L16.4658 23.2061C16.5756 23.7552 17.0575 24.1503 17.6174 24.1503C18.1772 24.1503 18.6593 23.7553 18.7689 23.2061L19.0502 21.7996H29.3111L29.6375 22.9437L25.0947 26.7293L5.30861 23.132L5.68878 21.7996H16.1845ZM8.98526 32.1658V26.1878L22.7429 28.6892L18.571 32.1658H8.98526ZM4.66094 25.4018L6.63637 25.7609V32.1659H2.73087L4.66094 25.4018ZM22.24 32.1658L30.3423 25.4138L32.269 32.1658H22.24Z" fill="#52B69A"/>
</g>
<defs>
<clipPath id="clip0_19_838">
<rect width="35" height="35" fill="white"/>
</clipPath>
</defs>
</svg>
