<svg width="37" height="37" viewBox="0 0 37 37" fill="none" xmlns="http://www.w3.org/2000/svg">
<g clip-path="url(#clip0_154_259)">
<path d="M36.9707 19.0613C36.8985 18.8327 36.7004 18.6664 36.4638 18.6328L31.6213 17.9546L29.4585 13.7324C29.2455 13.3164 28.563 13.3164 28.3506 13.7324L26.1884 17.9546L21.3453 18.6328C21.1081 18.6664 20.9106 18.8321 20.8384 19.0613C20.7662 19.2904 20.8309 19.5395 21.0059 19.7033L24.4964 22.9833L23.6738 27.6085C23.6327 27.8408 23.7261 28.0768 23.9154 28.2175C24.025 28.2991 24.1558 28.3402 24.2872 28.3402C24.3831 28.3402 24.4802 28.3184 24.5687 28.273L28.9055 26.0759L33.2429 28.273C33.4528 28.3813 33.7063 28.3589 33.8962 28.2175C34.0855 28.0762 34.1789 27.8414 34.1378 27.6085L33.3146 22.9833L36.8051 19.7033C36.9782 19.5389 37.043 19.2898 36.9707 19.0613ZM32.2142 22.3064C32.061 22.4503 31.9906 22.662 32.0273 22.8688L32.6906 26.5972L29.1851 24.8211C29.0961 24.7762 29.0001 24.7538 28.9036 24.7538C28.8071 24.7538 28.7106 24.7762 28.6221 24.8211L25.1173 26.5972L25.7799 22.8688C25.8173 22.662 25.7463 22.4503 25.5931 22.3064L22.8038 19.6865L26.6804 19.1435C26.8809 19.1154 27.0559 18.9915 27.1481 18.8109L28.903 15.3833L30.6585 18.8109C30.7507 18.9915 30.9257 19.1154 31.1262 19.1435L35.0022 19.6865L32.2142 22.3064Z" fill="#52B69A"/>
<path d="M23.9722 8.9946C23.9722 10.346 25.0719 11.4451 26.4233 11.4451C27.7747 11.4451 28.8738 10.346 28.8738 8.9946C28.8738 7.64323 27.7747 6.54346 26.4233 6.54346C25.0719 6.54346 23.9722 7.64323 23.9722 8.9946ZM27.6277 8.9946C27.6277 9.65845 27.0872 10.1996 26.4227 10.1996C25.7582 10.1996 25.217 9.65907 25.217 8.9946C25.217 8.33012 25.7576 7.78895 26.4227 7.78895C27.0872 7.78895 27.6277 8.3295 27.6277 8.9946Z" fill="#52B69A"/>
<path d="M20.0033 2.18397H27.6955L33.8863 8.36102V16.392H35.1318V7.84414L28.2099 0.938477H19.4889L3.73338 16.6423L3.73898 16.6473L0 20.3763L15.6515 36.0615L20.4554 31.4613L5.5051 16.6448L20.0033 2.18397ZM18.6706 31.4457L15.6709 34.3184L1.76113 20.3788L4.62329 17.5241L18.6706 31.4457Z" fill="#52B69A"/>
</g>
<defs>
<clipPath id="clip0_154_259">
<rect width="37" height="37" fill="white"/>
</clipPath>
</defs>
</svg>
