<svg width="33" height="30" viewBox="0 0 33 30" fill="none" xmlns="http://www.w3.org/2000/svg">
<g clip-path="url(#clip0_157_268)">
<path d="M4.03177 30.001C3.90618 30.001 3.78573 29.9502 3.69692 29.8597C3.60812 29.7692 3.55823 29.6465 3.55823 29.5185V13.1871C3.55823 13.0592 3.60812 12.9364 3.69692 12.8459C3.78573 12.7554 3.90618 12.7046 4.03177 12.7046C4.15736 12.7046 4.2778 12.7554 4.36661 12.8459C4.45542 12.9364 4.50531 13.0592 4.50531 13.1871V29.5185C4.50531 29.6465 4.45542 29.7692 4.36661 29.8597C4.2778 29.9502 4.15736 30.001 4.03177 30.001Z" fill="#52B69A"/>
<path d="M28.9683 30.001C28.8427 30.001 28.7223 29.9502 28.6334 29.8597C28.5446 29.7692 28.4948 29.6465 28.4948 29.5185V13.1871C28.4948 13.0592 28.5446 12.9364 28.6334 12.8459C28.7223 12.7554 28.8427 12.7046 28.9683 12.7046C29.0939 12.7046 29.2143 12.7554 29.3031 12.8459C29.3919 12.9364 29.4418 13.0592 29.4418 13.1871V29.5185C29.4418 29.6465 29.3919 29.7692 29.3031 29.8597C29.2143 29.9502 29.0939 30.001 28.9683 30.001Z" fill="#52B69A"/>
<path d="M20.061 29.9993C19.9354 29.9993 19.815 29.9485 19.7262 29.858C19.6374 29.7675 19.5875 29.6448 19.5875 29.5168V22.2593C19.5875 21.4248 19.2622 20.6246 18.6832 20.0345C18.1042 19.4445 17.3189 19.113 16.5 19.113C15.6812 19.113 14.8958 19.4445 14.3168 20.0345C13.7378 20.6246 13.4125 21.4248 13.4125 22.2593V29.5168C13.4125 29.6448 13.3626 29.7675 13.2738 29.858C13.185 29.9485 13.0646 29.9993 12.939 29.9993C12.8134 29.9993 12.693 29.9485 12.6042 29.858C12.5153 29.7675 12.4655 29.6448 12.4655 29.5168V22.2593C12.4655 21.1689 12.8905 20.1231 13.6471 19.3521C14.4038 18.5811 15.43 18.1479 16.5 18.1479C17.57 18.1479 18.5962 18.5811 19.3529 19.3521C20.1095 20.1231 20.5346 21.1689 20.5346 22.2593V29.5168C20.5346 29.6448 20.4847 29.7675 20.3959 29.858C20.3071 29.9485 20.1866 29.9993 20.061 29.9993Z" fill="#52B69A"/>
<path d="M32.5265 30.0003H0.473539C0.347949 30.0003 0.227502 29.9494 0.138696 29.8589C0.0498906 29.7684 0 29.6457 0 29.5177C0 29.3897 0.0498906 29.267 0.138696 29.1765C0.227502 29.086 0.347949 29.0352 0.473539 29.0352H32.5265C32.6521 29.0352 32.7725 29.086 32.8613 29.1765C32.9501 29.267 33 29.3897 33 29.5177C33 29.6457 32.9501 29.7684 32.8613 29.8589C32.7725 29.9494 32.6521 30.0003 32.5265 30.0003Z" fill="#52B69A"/>
<path d="M28.8407 13.6678C28.0199 13.6901 27.2077 13.4932 26.4848 13.0965C25.7618 12.6998 25.1534 12.1172 24.7199 11.4066C24.2891 12.1148 23.6842 12.696 22.965 13.0927C22.2459 13.4893 21.4375 13.6876 20.62 13.6678C19.7981 13.6889 18.9851 13.4894 18.2627 13.0893C17.5402 12.6892 16.9337 12.1026 16.504 11.3882C16.075 12.1026 15.4693 12.6894 14.7475 13.09C14.0258 13.4906 13.2134 13.6908 12.3918 13.6707C11.5738 13.6905 10.7648 13.492 10.0453 13.0948C9.32577 12.6976 8.72066 12.1156 8.29003 11.4066C7.85584 12.1182 7.2464 12.7017 6.52231 13.0989C5.79822 13.4961 4.9847 13.6932 4.16266 13.6707C3.4432 13.6754 2.73468 13.4912 2.10534 13.1359C1.476 12.7806 0.947054 12.2661 0.569444 11.6421C0.22675 11.0736 0.0333317 10.4249 0.00778881 9.75834C-0.0177541 9.09173 0.125437 8.42964 0.423594 7.83572L3.17202 2.31634C3.53908 1.61219 4.08847 1.02399 4.76052 0.615639C5.43257 0.207291 6.20157 -0.00559282 6.98401 0.000111705H26.0203C26.8027 -0.00559282 27.5717 0.207291 28.2438 0.615639C28.9158 1.02399 29.4652 1.61219 29.8323 2.31634L32.5788 7.8309C32.8771 8.42493 33.0204 9.08721 32.9949 9.754C32.9693 10.4208 32.7758 11.0697 32.4329 11.6382C32.0556 12.2615 31.5272 12.7753 30.8985 13.1302C30.2699 13.4852 29.5622 13.6693 28.8435 13.6649L28.8407 13.6678ZM6.98401 0.965207C6.37592 0.959085 5.77782 1.12291 5.2547 1.43887C4.73158 1.75484 4.30344 2.21086 4.01681 2.75739L1.26839 8.27195C1.04044 8.71852 0.93068 9.21794 0.949945 9.72093C0.969211 10.2239 1.11683 10.7131 1.37825 11.1402C1.67255 11.6228 2.08384 12.0201 2.57251 12.2938C3.06118 12.5674 3.61077 12.7083 4.16834 12.7027C6.16952 12.7027 7.80417 11.3342 7.80891 9.65203V9.57386C7.80891 9.44588 7.8588 9.32314 7.94761 9.23265C8.03641 9.14215 8.15686 9.09131 8.28245 9.09131C8.40804 9.09131 8.52849 9.14215 8.61729 9.23265C8.7061 9.32314 8.75599 9.44588 8.75599 9.57386C8.75599 11.2985 10.3888 12.7017 12.3947 12.7017C14.4006 12.7017 16.0333 11.2985 16.0333 9.57386C16.0333 9.44588 16.0832 9.32314 16.172 9.23265C16.2608 9.14215 16.3813 9.09131 16.5069 9.09131C16.6325 9.09131 16.7529 9.14215 16.8417 9.23265C16.9305 9.32314 16.9804 9.44588 16.9804 9.57386C16.9804 11.2985 18.6132 12.7017 20.6191 12.7017C22.625 12.7017 24.2578 11.2985 24.2578 9.57386C24.2578 9.44588 24.3077 9.32314 24.3965 9.23265C24.4853 9.14215 24.6057 9.09131 24.7313 9.09131C24.8569 9.09131 24.9773 9.14215 25.0661 9.23265C25.155 9.32314 25.2048 9.44588 25.2048 9.57386V9.65107C25.2048 11.3323 26.8357 12.6998 28.8416 12.7008C29.3984 12.7055 29.947 12.5643 30.4348 12.2906C30.9226 12.017 31.3331 11.6202 31.627 11.1383C31.8884 10.7112 32.036 10.222 32.0553 9.719C32.0746 9.21601 31.9648 8.71659 31.7368 8.27002L28.9818 2.75739C28.6953 2.21116 28.2675 1.75532 27.7447 1.43938C27.222 1.12343 26.6243 0.959439 26.0165 0.965207H6.98401Z" fill="#52B69A"/>
</g>
<defs>
<clipPath id="clip0_157_268">
<rect width="33" height="30" fill="white"/>
</clipPath>
</defs>
</svg>
