<svg width="172" height="55" viewBox="0 0 172 55" fill="none" xmlns="http://www.w3.org/2000/svg">
<path d="M7.464 2.456C8.696 2.456 9.724 2.868 10.548 3.692C11.372 4.516 11.784 5.552 11.784 6.8C11.784 8.04 11.372 9.076 10.548 9.908C9.732 10.732 8.704 11.144 7.464 11.144C6.464 11.144 5.596 10.864 4.86 10.304C4.124 9.744 3.636 8.988 3.396 8.036H4.44C4.68 8.684 5.064 9.192 5.592 9.56C6.128 9.928 6.752 10.112 7.464 10.112C8.32 10.112 9.044 9.848 9.636 9.32C10.228 8.792 10.576 8.108 10.68 7.268H6.648V6.284H10.68C10.56 5.46 10.204 4.788 9.612 4.268C9.02 3.748 8.304 3.488 7.464 3.488C6.776 3.488 6.172 3.66 5.652 4.004C5.14 4.34 4.756 4.816 4.5 5.432H3.432C3.72 4.496 4.22 3.768 4.932 3.248C5.644 2.72 6.488 2.456 7.464 2.456ZM14.218 4.52H18.466V11H17.446V5.408H15.07L14.734 8.684C14.646 9.54 14.426 10.148 14.074 10.508C13.722 10.86 13.194 11.036 12.49 11.036H12.31V10.076H12.538C12.906 10.076 13.186 9.972 13.378 9.764C13.57 9.548 13.69 9.208 13.738 8.744L14.218 4.52ZM25.2843 4.52H25.8483V11H24.8883V6.368L21.1083 11H20.5203V4.52H21.4923V9.116L25.2843 4.52ZM32.9068 4.52V5.444H30.4948V11H29.4988V5.444H27.0868V4.52H32.9068ZM38.6015 4.52H39.5975V11H38.6015V8.132H35.1335V11H34.1375V4.52H35.1335V7.172H38.6015V4.52ZM44.2649 6.56C44.9449 6.56 45.5009 6.768 45.9329 7.184C46.3649 7.592 46.5809 8.128 46.5809 8.792C46.5809 9.44 46.3649 9.972 45.9329 10.388C45.5009 10.796 44.9449 11 44.2649 11H41.6609V4.52H42.6569V6.56H44.2649ZM47.7569 4.52H48.7769V11H47.7569V4.52ZM44.1329 10.088C44.5569 10.088 44.8969 9.968 45.1529 9.728C45.4089 9.488 45.5369 9.176 45.5369 8.792C45.5369 8.4 45.4089 8.084 45.1529 7.844C44.8969 7.596 44.5569 7.472 44.1329 7.472H42.6569V10.088H44.1329ZM55.0847 2.444V3.212H51.9407V2.444H55.0847ZM55.6007 4.52H56.1647V11H55.2047V6.368L51.4247 11H50.8367V4.52H51.8087V9.116L55.6007 4.52ZM65.5358 11L63.3158 8.096H62.3918V11H61.3718V4.52H62.3918V7.148H63.3278L65.3318 4.52H66.5678L64.2038 7.628L66.8078 11H65.5358ZM68.9563 4.52H73.2043V11H72.1843V5.408H69.8083L69.4723 8.684C69.3843 9.54 69.1643 10.148 68.8123 10.508C68.4603 10.86 67.9323 11.036 67.2283 11.036H67.0483V10.076H67.2763C67.6443 10.076 67.9243 9.972 68.1163 9.764C68.3083 9.548 68.4283 9.208 68.4763 8.744L68.9563 4.52ZM79.9866 4.52H81.0786L77.9946 11.264C77.7546 11.792 77.5186 12.2 77.2866 12.488C77.0546 12.776 76.7946 12.984 76.5066 13.112C76.2186 13.248 75.8666 13.316 75.4506 13.316H74.8386V12.392H75.3666C75.7986 12.392 76.1226 12.304 76.3386 12.128C76.5546 11.952 76.7946 11.592 77.0586 11.048L77.2866 10.556L74.4066 4.52H75.5226L77.8266 9.428L79.9866 4.52ZM85.4229 4.856C86.3429 4.856 87.0989 5.148 87.6909 5.732C88.2829 6.308 88.5789 7.048 88.5789 7.952C88.5789 8.888 88.2709 9.656 87.6549 10.256C87.0389 10.848 86.2469 11.144 85.2789 11.144C84.2629 11.144 83.4509 10.824 82.8429 10.184C82.2429 9.536 81.9429 8.672 81.9429 7.592C81.9429 5.928 82.2429 4.684 82.8429 3.86C83.4429 3.036 84.4829 2.444 85.9629 2.084L87.8829 1.628V2.636L85.9869 3.092C85.1469 3.284 84.4909 3.6 84.0189 4.04C83.5469 4.48 83.2429 5.064 83.1069 5.792C83.6749 5.168 84.4469 4.856 85.4229 4.856ZM85.2789 10.16C85.9189 10.16 86.4549 9.952 86.8869 9.536C87.3189 9.112 87.5349 8.588 87.5349 7.964C87.5349 7.332 87.3189 6.804 86.8869 6.38C86.4549 5.956 85.9189 5.744 85.2789 5.744C84.6309 5.744 84.0909 5.956 83.6589 6.38C83.2269 6.796 83.0109 7.32 83.0109 7.952C83.0109 8.264 83.0669 8.556 83.1789 8.828C83.2989 9.1 83.4589 9.332 83.6589 9.524C83.8589 9.716 84.0989 9.872 84.3789 9.992C84.6589 10.104 84.9589 10.16 85.2789 10.16ZM94.6054 4.52H95.6014V11H94.6054V8.132H91.1374V11H90.1414V4.52H91.1374V7.172H94.6054V4.52ZM100.269 6.56C100.949 6.56 101.505 6.768 101.937 7.184C102.369 7.592 102.585 8.128 102.585 8.792C102.585 9.44 102.369 9.972 101.937 10.388C101.505 10.796 100.949 11 100.269 11H97.6648V4.52H98.6608V6.56H100.269ZM103.761 4.52H104.781V11H103.761V4.52ZM100.137 10.088C100.561 10.088 100.901 9.968 101.157 9.728C101.413 9.488 101.541 9.176 101.541 8.792C101.541 8.4 101.413 8.084 101.157 7.844C100.901 7.596 100.561 7.472 100.137 7.472H98.6608V10.088H100.137ZM111.089 2.444V3.212H107.945V2.444H111.089ZM111.605 4.52H112.169V11H111.209V6.368L107.429 11H106.841V4.52H107.813V9.116L111.605 4.52ZM117.376 4.52H122.872V11H121.864V5.456H118.396V11H117.376V4.52ZM127.85 11.144C127.21 11.144 126.626 11 126.098 10.712C125.57 10.416 125.158 10.012 124.862 9.5C124.566 8.98 124.418 8.4 124.418 7.76C124.418 6.784 124.742 5.976 125.39 5.336C126.046 4.696 126.866 4.376 127.85 4.376C128.498 4.376 129.082 4.524 129.602 4.82C130.13 5.108 130.542 5.512 130.838 6.032C131.142 6.544 131.294 7.12 131.294 7.76C131.294 8.728 130.966 9.536 130.31 10.184C129.654 10.824 128.834 11.144 127.85 11.144ZM126.134 9.488C126.59 9.936 127.162 10.16 127.85 10.16C128.546 10.16 129.118 9.936 129.566 9.488C130.022 9.032 130.25 8.456 130.25 7.76C130.25 7.064 130.022 6.492 129.566 6.044C129.118 5.588 128.546 5.36 127.85 5.36C127.162 5.36 126.59 5.588 126.134 6.044C125.686 6.492 125.462 7.064 125.462 7.76C125.462 8.456 125.686 9.032 126.134 9.488ZM135.701 11.144C135.069 11.144 134.493 11 133.973 10.712C133.461 10.416 133.057 10.008 132.761 9.488C132.473 8.968 132.329 8.392 132.329 7.76C132.329 6.792 132.649 5.988 133.289 5.348C133.937 4.7 134.741 4.376 135.701 4.376C136.469 4.376 137.133 4.588 137.693 5.012C138.261 5.436 138.645 6 138.845 6.704H137.837C137.645 6.288 137.357 5.96 136.973 5.72C136.597 5.48 136.173 5.36 135.701 5.36C135.037 5.36 134.481 5.592 134.033 6.056C133.593 6.512 133.373 7.08 133.373 7.76C133.373 8.208 133.473 8.616 133.673 8.984C133.873 9.344 134.149 9.632 134.501 9.848C134.861 10.056 135.261 10.16 135.701 10.16C136.173 10.16 136.593 10.04 136.961 9.8C137.337 9.552 137.625 9.212 137.825 8.78H138.857C138.657 9.5 138.269 10.076 137.693 10.508C137.125 10.932 136.461 11.144 135.701 11.144ZM146.346 7.784C146.346 7.872 146.338 7.996 146.322 8.156H140.79C140.87 8.756 141.118 9.24 141.534 9.608C141.95 9.968 142.462 10.148 143.07 10.148C143.518 10.148 143.914 10.052 144.258 9.86C144.61 9.66 144.89 9.38 145.098 9.02H146.166C145.894 9.692 145.486 10.216 144.942 10.592C144.398 10.96 143.774 11.144 143.07 11.144C142.134 11.144 141.35 10.82 140.718 10.172C140.086 9.524 139.77 8.72 139.77 7.76C139.77 6.792 140.086 5.988 140.718 5.348C141.35 4.7 142.134 4.376 143.07 4.376C144.038 4.376 144.826 4.704 145.434 5.36C146.042 6.016 146.346 6.824 146.346 7.784ZM143.07 5.348C142.686 5.348 142.334 5.424 142.014 5.576C141.702 5.728 141.442 5.948 141.234 6.236C141.026 6.516 140.886 6.84 140.814 7.208H145.314C145.242 6.832 145.102 6.504 144.894 6.224C144.686 5.936 144.426 5.72 144.114 5.576C143.802 5.424 143.454 5.348 143.07 5.348ZM148.82 4.52H153.068V11H152.048V5.408H149.672L149.336 8.684C149.248 9.54 149.028 10.148 148.676 10.508C148.324 10.86 147.796 11.036 147.092 11.036H146.912V10.076H147.14C147.508 10.076 147.788 9.972 147.98 9.764C148.172 9.548 148.292 9.208 148.34 8.744L148.82 4.52ZM158.038 11.144C157.398 11.144 156.814 11 156.286 10.712C155.758 10.416 155.346 10.012 155.05 9.5C154.754 8.98 154.606 8.4 154.606 7.76C154.606 6.784 154.93 5.976 155.578 5.336C156.234 4.696 157.054 4.376 158.038 4.376C158.686 4.376 159.27 4.524 159.79 4.82C160.318 5.108 160.73 5.512 161.026 6.032C161.33 6.544 161.482 7.12 161.482 7.76C161.482 8.728 161.154 9.536 160.498 10.184C159.842 10.824 159.022 11.144 158.038 11.144ZM156.322 9.488C156.778 9.936 157.35 10.16 158.038 10.16C158.734 10.16 159.306 9.936 159.754 9.488C160.21 9.032 160.438 8.456 160.438 7.76C160.438 7.064 160.21 6.492 159.754 6.044C159.306 5.588 158.734 5.36 158.038 5.36C157.35 5.36 156.778 5.588 156.322 6.044C155.874 6.492 155.65 7.064 155.65 7.76C155.65 8.456 155.874 9.032 156.322 9.488ZM167.196 11L164.976 8.096H164.052V11H163.032V4.52H164.052V7.148H164.988L166.992 4.52H168.228L165.864 7.628L168.468 11H167.196Z" fill="#313E48"/>
<g clip-path="url(#clip0_303_7)">
<path d="M8.67999 32.3759C7.69286 31.9858 4.11874 31.4184 4.11874 29.8582C4.11874 28.7234 5.44627 28.4043 6.26321 28.4043C6.97803 28.4043 7.86305 28.617 8.3396 29.078C8.64595 29.3972 8.74807 29.5745 8.85019 29.8227C8.98634 30.1418 9.05442 30.4965 9.49693 30.4965H11.8797C12.4243 30.4965 12.5945 30.3901 12.5945 29.7872C12.5945 26.4539 9.22462 25 6.12705 25C3.09757 25.1418 0.204235 26.7376 0.204235 30.0355C0.204235 33.2624 2.45082 34.2553 4.93568 35.0709C7.01207 35.7447 9.15654 35.7801 9.15654 37.1986C9.15654 38.617 8.10133 38.9362 6.7738 38.9362C5.88878 38.9362 4.8676 38.7234 4.39105 38.0851C4.0847 37.695 3.94855 37.3759 3.91451 37.0567C3.88047 36.4184 3.60815 36.3475 3.02949 36.3475H0.714823C0.136157 36.3475 0 36.4894 0 37.0567C0 40.6028 3.50604 42.4468 6.53552 42.4468C10.2798 42.4468 13.003 40.7092 13.003 37.1277C13.003 33.6525 10.45 32.9433 8.67999 32.3759ZM27.8441 25.3901H25.4273C24.9848 25.3901 24.7124 25.5319 24.7124 26.1348V36.4184C24.7124 38.0142 23.6913 38.9362 22.0914 38.9362C20.4916 38.9362 19.5045 38.0142 19.5045 36.4184V26.1348C19.5045 25.5674 19.2321 25.3901 18.7896 25.3901H16.3728C15.9303 25.3901 15.658 25.5319 15.658 26.1348V36.9858C15.658 40.9574 19.1981 42.4468 22.0914 42.4468C24.9848 42.4468 28.5248 40.9574 28.5248 36.9858V26.0993C28.5248 25.5319 28.2525 25.3901 27.8441 25.3901ZM44.2169 25.3901H41.8682C41.4257 25.3901 41.1534 25.5319 41.1534 26.1348V34.9291L36.0135 26.2411C35.7071 25.7447 35.5369 25.3901 34.9242 25.3901H32.6436C32.099 25.3901 31.9288 25.6738 31.9288 26.1348V41.3121C31.9288 41.8794 32.2011 42.0567 32.6436 42.0567H35.0604C35.5029 42.0567 35.7752 41.9149 35.7752 41.3121V32.5177L40.9491 41.2057C41.2555 41.7021 41.4257 42.0567 42.0384 42.0567H44.2509C44.7956 42.0567 44.9658 41.773 44.9658 41.3121V26.0993C44.9317 25.5319 44.6594 25.3901 44.2169 25.3901ZM61.645 41.2411L58.207 36.0284C59.7047 35.4965 61.5769 33.6525 61.5769 30.9929C61.5769 29.3617 61.0663 27.9078 60.1813 27.0213C59.1601 25.9574 58.0028 25.3901 55.3477 25.3901H49.2207C48.676 25.3901 48.5399 25.6738 48.5399 26.1348V41.3121C48.5399 41.9149 48.7782 42.0567 49.2207 42.0567H51.6374C52.08 42.0567 52.3523 41.9149 52.3523 41.3121V28.9362H55.586C56.8454 28.9362 57.8326 29.7872 57.8326 31.0993C57.8326 32.305 56.7093 33.156 55.5179 33.156H55.0414C54.4967 33.156 54.3265 33.4397 54.3265 33.9007V35.922C54.3265 36.6312 54.3606 36.9149 54.5989 37.1986L57.2199 41.2766C57.5603 41.8085 57.8666 42.0567 58.4453 42.0567H61.3046C61.7471 42.0567 61.8492 41.5957 61.645 41.2411ZM71.6865 38.5816H70.1548V28.9007H71.6184C72.1631 28.9007 72.3333 28.617 72.3333 28.156V26.0993C72.3333 25.6383 72.1971 25.3546 71.6184 25.3546H64.8446C64.3 25.3546 64.1298 25.6383 64.1298 26.0993V28.156C64.1298 28.617 64.266 28.9007 64.8446 28.9007H66.3424V38.5816H64.8106C64.266 38.5816 64.0958 38.8652 64.0958 39.3262V41.3121C64.0958 41.773 64.2319 42.0567 64.8106 42.0567H71.6865C72.2311 42.0567 72.4013 41.773 72.4013 41.3121V39.3262C72.4013 38.8652 72.2311 38.5816 71.6865 38.5816ZM83.0556 32.3759C82.0685 31.9858 78.4944 31.4184 78.4944 29.8582C78.4944 28.7234 79.8219 28.4043 80.6388 28.4043C81.3536 28.4043 82.2387 28.617 82.7152 29.078C83.0216 29.3972 83.1237 29.5745 83.2258 29.8227C83.362 30.1418 83.43 30.4965 83.8726 30.4965H86.2553C86.7999 30.4965 86.9701 30.3901 86.9701 29.7872C86.9701 26.4539 83.6002 24.9645 80.5027 24.9645C77.4732 25.1064 74.5799 26.7021 74.5799 30C74.5799 33.227 76.8264 34.2199 79.3113 35.0355C81.3877 35.7092 83.5322 35.7447 83.5322 37.1631C83.5322 38.5816 82.4769 38.9007 81.1494 38.9007C80.2644 38.9007 79.2432 38.6879 78.7667 38.0496C78.4603 37.6596 78.3242 37.3404 78.2901 37.0213C78.2561 36.383 77.9838 36.3121 77.4051 36.3121H75.0564C74.5118 36.3121 74.3416 36.4539 74.3416 37.0213C74.3416 40.5674 77.8476 42.4113 80.8771 42.4113C84.6214 42.4113 87.3446 40.6738 87.3446 37.0922C87.4126 33.6525 84.8256 32.9433 83.0556 32.3759ZM101.845 38.5106H94.0843V35.1773H100.62C101.164 35.1773 101.335 34.8936 101.335 34.4326V32.4468C101.335 31.9858 101.198 31.7021 100.62 31.7021H94.0843V28.9362H101.437C101.981 28.9362 102.152 28.6525 102.152 28.1915V26.0993C102.152 25.6383 102.015 25.3546 101.437 25.3546H90.9527C90.4081 25.3546 90.2379 25.6383 90.2379 26.0993V41.3121C90.2379 41.773 90.374 42.0567 90.9527 42.0567H101.845C102.39 42.0567 102.56 41.773 102.56 41.3121V39.2199C102.56 38.7943 102.424 38.5106 101.845 38.5106ZM118.286 25.3901H112.806C112.261 25.3901 112.091 25.6738 112.091 26.1348V41.3121C112.091 41.8794 112.363 42.0567 112.806 42.0567H115.223C115.665 42.0567 115.937 41.9149 115.937 41.3121V37.1277H118.286C122.439 37.1277 124.686 34.7872 124.686 31.2766C124.651 27.766 122.439 25.3901 118.286 25.3901ZM118.252 33.6879H115.903V28.9362H118.252C120.158 28.9362 120.975 30 120.975 31.3121C120.975 32.5887 120.158 33.6879 118.252 33.6879ZM139.935 41.3475L134.557 26.1702C134.353 25.6383 134.08 25.3901 133.57 25.3901H131.221C130.676 25.3901 130.404 25.6383 130.234 26.1702L124.822 41.3475C124.686 41.6667 124.686 42.0567 125.23 42.0567H127.783C128.328 42.0567 128.498 41.9149 128.702 41.3121L129.383 39.3262H135.34L136.021 41.3121C136.225 41.9149 136.395 42.0567 136.94 42.0567H139.493C140.037 42.0567 140.037 41.6667 139.935 41.3475ZM130.54 35.7447L132.378 30.1418L134.217 35.7447H130.54ZM155.185 41.2411L151.747 36.0284C153.244 35.4965 155.117 33.6525 155.117 30.9929C155.117 29.3617 154.606 27.9078 153.721 27.0213C152.7 25.9574 151.542 25.3901 148.887 25.3901H142.76C142.216 25.3901 142.08 25.6738 142.08 26.1348V41.3121C142.08 41.9149 142.318 42.0567 142.76 42.0567H145.177C145.62 42.0567 145.892 41.9149 145.892 41.3121V28.9362H149.126C150.385 28.9362 151.372 29.7872 151.372 31.0993C151.372 32.305 150.249 33.156 149.058 33.156H148.581C148.036 33.156 147.866 33.4397 147.866 33.9007V35.922C147.866 36.6312 147.9 36.9149 148.139 37.1986L150.76 41.2766C151.1 41.8085 151.406 42.0567 151.985 42.0567H154.844C155.287 42.0567 155.423 41.5957 155.185 41.2411ZM171.626 25.3901H168.358C167.813 25.3901 167.643 25.4255 167.132 25.9929L162.095 31.773V26.0993C162.095 25.5319 161.822 25.3546 161.414 25.3546H158.997C158.52 25.3546 158.282 25.4965 158.282 26.0993V41.3121C158.282 41.8794 158.52 42.0567 158.997 42.0567H161.414C161.822 42.0567 162.095 41.9149 162.095 41.3121V36.8085L163.592 35.1773C164.92 37.4468 167.064 41.2766 167.064 41.2766C167.371 41.8085 167.711 42.0922 168.29 42.0922H171.251C171.728 42.0922 171.796 41.5957 171.626 41.2766L166.384 32.305L171.864 26.1348C172.068 25.8511 172.068 25.3901 171.626 25.3901Z" fill="#313E48"/>
<path d="M46.3954 48.5107H45.136C44.9317 48.5107 44.8637 48.5461 44.6594 48.7589L42.7532 50.9575V48.7943C42.7532 48.5816 42.6511 48.5107 42.4809 48.5107H41.5619C41.3917 48.5107 41.2896 48.5816 41.2896 48.7943V54.5745C41.2896 54.7873 41.3917 54.8582 41.5619 54.8582H42.4809C42.6511 54.8582 42.7532 54.7873 42.7532 54.5745V52.8724L43.3319 52.2341C43.8425 53.0851 44.6594 54.539 44.6594 54.539C44.7956 54.7518 44.8977 54.8582 45.136 54.8582H46.2593C46.4295 54.8582 46.4635 54.6809 46.3954 54.539L44.4212 51.1348L46.4975 48.7943C46.5656 48.688 46.5656 48.5107 46.3954 48.5107ZM47.6208 52.9787C47.5868 53.3688 47.5528 53.617 47.1102 53.617C46.9401 53.617 46.906 53.7234 46.906 53.8653V54.5745C46.906 54.7873 46.9401 54.8582 47.1783 54.8582C48.608 54.8936 48.9484 54.539 49.0505 52.9787L49.2547 49.8227H50.7524V54.539C50.7524 54.7518 50.8546 54.8227 51.0248 54.8227H51.9438C52.114 54.8227 52.2161 54.7518 52.2161 54.539V48.7943C52.2161 48.5816 52.114 48.5107 51.9438 48.5107H48.2335C48.0633 48.5107 47.9612 48.5816 47.9612 48.7943L47.6208 52.9787ZM58.5134 48.5107H57.4922C57.2539 48.5107 57.1859 48.5816 57.1178 48.7943L56.5051 50.1419L55.9264 51.4539L55.3818 50.1419L54.735 48.7589C54.667 48.5461 54.5648 48.5107 54.3606 48.5107H53.2713C53.1011 48.5107 53.0671 48.6525 53.1011 48.7943L55.1775 53.0851L54.4968 54.5745C54.4287 54.6809 54.4627 54.8582 54.5989 54.8582H55.62C55.8243 54.8582 55.8924 54.8227 56.0285 54.5745L58.7176 48.7589C58.7176 48.6525 58.6836 48.5107 58.5134 48.5107ZM59.8069 48.5107C59.6367 48.5107 59.5346 48.5816 59.5346 48.7943V54.5745C59.5346 54.7518 59.6026 54.8582 59.8069 54.8582H62.1896C63.7895 54.8582 64.6404 54.2199 64.6404 52.8369C64.6404 51.4539 63.8575 50.8865 62.2237 50.8865H61.0323V49.8582H63.8235C64.0277 49.8582 64.0958 49.7518 64.0958 49.5745V48.8298C64.0958 48.6525 64.0277 48.5461 63.8235 48.5461H59.8069V48.5107ZM62.1896 52.0922C62.9044 52.0922 63.1768 52.305 63.1768 52.8014C63.1768 53.2979 62.8364 53.5107 62.1556 53.5107H60.9642V52.0922H62.1896ZM70.4271 48.5107H69.508C69.3378 48.5107 69.2357 48.5816 69.2357 48.7943V50.9575H67.1593V48.7943C67.1593 48.5816 67.0572 48.5107 66.887 48.5107H65.968C65.7978 48.5107 65.6956 48.5816 65.6956 48.7943V54.5745C65.6956 54.7873 65.7978 54.8582 65.968 54.8582H66.887C67.0572 54.8582 67.1593 54.7873 67.1593 54.5745V52.4114H69.2357V54.5745C69.2357 54.7873 69.3378 54.8582 69.508 54.8582H70.4271C70.5973 54.8582 70.6994 54.7873 70.6994 54.5745V48.7943C70.6994 48.5461 70.5973 48.5107 70.4271 48.5107ZM74.4437 54.8582C76.0436 54.8582 76.8605 54.0426 76.8605 52.6951C76.8605 51.3121 76.0095 50.5674 74.4097 50.5674H73.5247V48.7943C73.5247 48.5816 73.4225 48.5107 73.2523 48.5107H72.3333C72.1631 48.5107 72.061 48.5816 72.061 48.7943V54.5745C72.061 54.7518 72.1291 54.8582 72.3333 54.8582H74.4437ZM74.4097 51.844C75.1245 51.844 75.4309 52.1986 75.4309 52.6596C75.4309 53.156 75.1245 53.4752 74.4097 53.4752H73.5247V51.844H74.4097ZM79.1752 48.7943C79.1752 48.5816 79.073 48.5107 78.9029 48.5107H77.9838C77.8136 48.5107 77.7115 48.5816 77.7115 48.7943V54.5745C77.7115 54.7873 77.8136 54.8582 77.9838 54.8582H78.9029C79.073 54.8582 79.1752 54.7873 79.1752 54.5745V48.7943ZM80.8431 48.5107H81.7281C81.8983 48.5107 82.0004 48.5816 82.0004 48.7943V52.1277L83.9747 48.8298C84.1108 48.6525 84.1449 48.5107 84.3832 48.5107H85.2682C85.4724 48.5107 85.5405 48.617 85.5405 48.7943V54.5745C85.5405 54.7873 85.4384 54.8582 85.2682 54.8582H84.3491C84.1789 54.8582 84.0768 54.7873 84.0768 54.5745V51.2057L82.1025 54.5036C81.9664 54.6809 81.9323 54.8227 81.6941 54.8227H80.8431C80.6389 54.8227 80.5708 54.7163 80.5708 54.539V48.7943C80.5708 48.5461 80.6729 48.5107 80.8431 48.5107ZM84.5874 46.4539H84.1109C84.0087 46.4539 83.9747 46.5248 83.9747 46.5958C83.8385 46.9149 83.4641 47.0568 83.1578 47.0568C82.8174 47.0568 82.4429 46.9149 82.3408 46.5958C82.3068 46.5248 82.2727 46.4539 82.2047 46.4539H81.7281C81.5919 46.4539 81.626 46.6312 81.66 46.6312C81.7621 47.4468 82.4089 47.8014 83.1918 47.8014C83.9407 47.8014 84.5874 47.4114 84.7236 46.6312C84.6895 46.6312 84.7236 46.4539 84.5874 46.4539ZM94.0843 48.5107H89.6592C89.489 48.5107 89.3869 48.5816 89.3869 48.7943V54.5745C89.3869 54.7873 89.489 54.8582 89.6592 54.8582H90.5783C90.7485 54.8582 90.8506 54.7873 90.8506 54.5745V49.8582H92.927V54.5745C92.927 54.7873 93.0291 54.8582 93.1993 54.8582H94.1184C94.2886 54.8582 94.3907 54.7873 94.3907 54.5745V48.7943C94.3566 48.5461 94.2545 48.5107 94.0843 48.5107ZM100.518 50.5319C100.518 49.0071 99.1221 48.3688 98.0329 48.3688C96.9436 48.3688 95.548 49.0426 95.548 50.5319V52.8014C95.548 54.3263 96.9096 54.9646 98.0329 54.9646C99.1221 54.9646 100.518 54.2908 100.518 52.8014V50.5319ZM99.0541 52.6596C99.0541 53.2624 98.6115 53.617 98.0329 53.617C97.4202 53.617 97.0117 53.2624 97.0117 52.6596V50.6383C97.0117 50.0355 97.4542 49.6809 98.0329 49.6809C98.6456 49.6809 99.0541 50.0355 99.0541 50.6383V52.6596ZM106.407 52.9787C106.407 52.7305 106.338 52.6596 106.134 52.6596H105.215C105.011 52.6596 104.977 52.8014 104.977 53.0142C104.909 53.4752 104.5 53.688 103.99 53.688C103.377 53.688 102.969 53.3333 102.969 52.7305V50.7092C102.969 50.1064 103.377 49.7518 103.99 49.7518C104.5 49.7518 104.739 49.8936 104.943 50.2128C105.011 50.3192 105.011 50.4965 105.215 50.4965H106.1C106.304 50.4965 106.372 50.461 106.372 50.2128C106.236 48.9716 105.113 48.3688 103.956 48.3688C102.866 48.3688 101.471 49.0426 101.471 50.5319V52.8014C101.471 54.3263 102.866 54.9646 103.956 54.9646C105.147 55 106.407 54.2199 106.407 52.9787ZM111.989 53.5107H109.028V52.2341H111.512C111.717 52.2341 111.785 52.1277 111.785 51.9504V51.2057C111.785 51.0284 111.717 50.922 111.512 50.922H109.028V49.8582H111.819C112.023 49.8582 112.091 49.7518 112.091 49.5745V48.7589C112.091 48.5816 112.023 48.4752 111.819 48.4752H107.836C107.632 48.4752 107.564 48.5816 107.564 48.7589V54.539C107.564 54.7163 107.632 54.8227 107.836 54.8227H111.989C112.193 54.8227 112.261 54.7163 112.261 54.539V53.7589C112.227 53.617 112.193 53.5107 111.989 53.5107ZM113.623 52.9787C113.589 53.3688 113.555 53.617 113.112 53.617C112.942 53.617 112.908 53.7234 112.908 53.8653V54.5745C112.908 54.7873 112.942 54.8582 113.18 54.8582C114.61 54.8936 114.95 54.539 115.052 52.9787L115.257 49.8227H116.754V54.539C116.754 54.7518 116.857 54.8227 117.027 54.8227H117.946C118.116 54.8227 118.218 54.7518 118.218 54.539V48.7943C118.218 48.5816 118.116 48.5107 117.946 48.5107H114.236C114.065 48.5107 113.963 48.5816 113.963 48.7943L113.623 52.9787ZM124.345 50.5319C124.345 49.0071 122.95 48.3688 121.86 48.3688C120.771 48.3688 119.375 49.0426 119.375 50.5319V52.8014C119.375 54.3263 120.737 54.9646 121.86 54.9646C122.95 54.9646 124.345 54.2908 124.345 52.8014V50.5319ZM122.881 52.6596C122.881 53.2624 122.439 53.617 121.86 53.617C121.248 53.617 120.839 53.2624 120.839 52.6596V50.6383C120.839 50.0355 121.282 49.6809 121.86 49.6809C122.473 49.6809 122.881 50.0355 122.881 50.6383V52.6596ZM130.608 48.5107H129.349C129.145 48.5107 129.077 48.5461 128.872 48.7589L126.966 50.9575V48.7943C126.966 48.5816 126.864 48.5107 126.694 48.5107H125.775C125.605 48.5107 125.503 48.5816 125.503 48.7943V54.5745C125.503 54.7873 125.605 54.8582 125.775 54.8582H126.694C126.864 54.8582 126.966 54.7873 126.966 54.5745V52.8724L127.545 52.2341C128.055 53.0851 128.872 54.539 128.872 54.539C129.009 54.7518 129.111 54.8582 129.349 54.8582H130.472C130.642 54.8582 130.676 54.6809 130.608 54.539L128.634 51.1348L130.711 48.7943C130.779 48.688 130.779 48.5107 130.608 48.5107Z" fill="#313E48"/>
<path d="M1.97444 49.7163H35.0946C35.6392 49.7163 36.0817 50.1773 36.0817 50.7447C36.0817 51.3121 35.6392 51.773 35.0946 51.773H1.97444C1.42981 51.773 0.987305 51.3121 0.987305 50.7447C1.02134 50.1773 1.46385 49.7163 1.97444 49.7163ZM136.974 49.7163H170.094C170.639 49.7163 171.081 50.1773 171.081 50.7447C171.081 51.3121 170.639 51.773 170.094 51.773H136.974C136.429 51.773 135.987 51.3121 135.987 50.7447C136.021 50.1773 136.429 49.7163 136.974 49.7163Z" fill="#313E48"/>
</g>
<defs>
<clipPath id="clip0_303_7">
<rect width="172" height="30" fill="white" transform="translate(0 25)"/>
</clipPath>
</defs>
</svg>
