<svg width="110" height="83" viewBox="0 0 110 83" fill="none" xmlns="http://www.w3.org/2000/svg">
<g clip-path="url(#clip0_147_175)">
<path d="M5.55366 69.1105C4.93141 68.8615 2.64458 68.5191 2.64458 67.5699C2.64458 66.8696 3.50013 66.6673 4.01354 66.6673C4.4803 66.6673 5.04031 66.8073 5.33586 67.0875C5.52262 67.2742 5.60031 67.3987 5.66262 67.5543C5.74037 67.7566 5.78702 67.9745 6.08273 67.9745H7.60725C7.96511 67.9745 8.0584 67.9123 8.0584 67.5388C8.0584 65.4846 5.89597 64.582 3.9203 64.582C1.97567 64.6598 0.140001 65.6558 0.140001 67.6789C0.140001 69.6553 1.58677 70.2778 3.15793 70.7758C4.4803 71.196 5.86487 71.2115 5.86487 72.083C5.86487 72.9544 5.18036 73.1413 4.34025 73.1413C3.76464 73.1413 3.12689 73.0012 2.81573 72.6277C2.61348 72.3942 2.53579 72.1919 2.52018 71.9897C2.48908 71.6006 2.31793 71.5538 1.96012 71.5538H0.451157C0.0934072 71.5538 0 71.6317 0 71.9897C0 74.1683 2.24018 75.2888 4.18475 75.2888C6.58054 75.2888 8.3228 74.2305 8.3228 72.0208C8.3228 69.9043 6.67389 69.453 5.55372 69.1106L5.55366 69.1105ZM17.7969 64.8153H16.2568C15.9769 64.8153 15.8057 64.9087 15.8057 65.2666V71.5849C15.8057 72.5653 15.1522 73.1255 14.1256 73.1255C13.0988 73.1255 12.4609 72.5653 12.4609 71.5849V65.2666C12.4609 64.9087 12.2899 64.8153 12.0097 64.8153H10.4696C10.1897 64.8153 10.0185 64.9087 10.0185 65.2666V71.9272C10.0185 74.3705 12.2742 75.2887 14.1255 75.2887C15.9768 75.2887 18.248 74.3705 18.248 71.9272V65.2666C18.248 64.9087 18.077 64.8153 17.7969 64.8153H17.7969ZM28.2822 64.8153H26.7888C26.5088 64.8153 26.3376 64.9087 26.3376 65.2666V70.6667L23.0396 65.3444C22.8374 65.0332 22.7285 64.8153 22.3395 64.8153H20.8772C20.5194 64.8153 20.426 64.9865 20.426 65.2666V74.6039C20.426 74.9618 20.5972 75.0552 20.8772 75.0552H22.4173C22.6974 75.0552 22.8684 74.9618 22.8684 74.6039V69.1883L26.1665 74.5261C26.3688 74.8373 26.4776 75.0552 26.8666 75.0552H28.2822C28.6401 75.0552 28.7334 74.8841 28.7334 74.6039V65.2666C28.7334 64.9087 28.5623 64.8153 28.2822 64.8153ZM39.4209 74.5546L37.2274 71.3592C38.1919 71.0325 39.3898 69.8938 39.3898 68.2571C39.3898 67.2586 39.0632 66.3715 38.4875 65.8113C37.8341 65.1577 37.0874 64.8153 35.3917 64.8153H31.4714C31.1136 64.8153 31.0358 64.9865 31.0358 65.2666V74.6013C31.0358 74.9618 31.1914 75.0552 31.4714 75.0552H33.0115C33.2916 75.0552 33.4626 74.9618 33.4626 74.6013V66.9941H35.5318C36.3406 66.9941 36.963 67.5076 36.963 68.3194C36.963 69.0508 36.2473 69.5826 35.485 69.5826H35.174C34.8161 69.5826 34.7228 69.7537 34.7228 70.0339V71.2814C34.7228 71.7172 34.7538 71.8884 34.8938 72.0751L36.5741 74.5858C36.7918 74.9152 36.9786 75.0552 37.3519 75.0552H39.1876C39.4831 75.0552 39.561 74.7725 39.4209 74.5546ZM45.8458 72.9232H44.8658V66.9785H45.7992C46.1569 66.9785 46.2503 66.8073 46.2503 66.5272V65.2666C46.2503 64.9865 46.157 64.8153 45.7992 64.8153H41.4745C41.1166 64.8153 41.0233 64.9865 41.0233 65.2666V66.5272C41.0233 66.8073 41.1166 66.9785 41.4745 66.9785H42.4234V72.9232H41.4434C41.0855 72.9232 40.9922 73.0944 40.9922 73.3745V74.604C40.9922 74.8841 41.0855 75.0553 41.4434 75.0553H45.8459C46.2038 75.0553 46.2971 74.8841 46.2971 74.604V73.3745C46.2971 73.0944 46.2038 72.9232 45.8459 72.9232H45.8458ZM53.1265 69.1105C52.5041 68.8615 50.2172 68.5191 50.2172 67.5699C50.2172 66.8696 51.0729 66.6673 51.5863 66.6673C52.053 66.6673 52.613 66.8073 52.9086 67.0875C53.0953 67.2742 53.1731 67.3987 53.2354 67.5543C53.3131 67.7566 53.3597 67.9745 53.6554 67.9745H55.18C55.5378 67.9745 55.6311 67.9123 55.6311 67.5388C55.6311 65.4846 53.4687 64.582 51.493 64.582C49.5484 64.6598 47.7127 65.6558 47.7127 67.6789C47.7127 69.6553 49.1595 70.2778 50.7307 70.7758C52.053 71.196 53.4376 71.2115 53.4376 72.083C53.4376 72.9544 52.753 73.1413 51.913 73.1413C51.3374 73.1413 50.6996 73.0012 50.3885 72.6277C50.1863 72.3942 50.1085 72.1919 50.093 71.9897C50.0617 71.6006 49.8907 71.5538 49.5328 71.5538H48.0238C47.6661 71.5538 47.5727 71.6317 47.5727 71.9897C47.5727 74.1683 49.8129 75.2888 51.7574 75.2888C54.1532 75.2888 55.8955 74.2305 55.8955 72.0208C55.8955 69.9043 54.2466 69.453 53.1265 69.1106V69.1105ZM65.1364 72.8766H60.1736V70.8223H64.343C64.7007 70.8223 64.7941 70.6512 64.7941 70.371V69.1572C64.7941 68.8771 64.7007 68.7059 64.343 68.7059H60.1736V67.0096H64.8718C65.2297 67.0096 65.323 66.8384 65.323 66.5582V65.2666C65.323 64.9865 65.2297 64.8152 64.8718 64.8152H58.1669C57.8091 64.8152 57.7157 64.9864 57.7157 65.2666V74.6039C57.7157 74.884 57.809 75.0552 58.1669 75.0552H65.1364C65.4941 75.0552 65.5874 74.884 65.5874 74.6039V73.3278C65.5874 73.0477 65.4942 72.8764 65.1364 72.8764V72.8766ZM75.6372 64.8154H72.1369C71.7791 64.8154 71.6858 64.9865 71.6858 65.2667V74.604C71.6858 74.9618 71.8568 75.0553 72.1369 75.0553H73.6771C73.957 75.0553 74.1282 74.9619 74.1282 74.604V72.0207H75.6217C78.2818 72.0207 79.7131 70.5889 79.7131 68.4258C79.7131 66.2783 78.313 64.8154 75.6372 64.8154ZM75.6217 69.9198H74.1282V67.0097H75.6217C76.8351 67.0097 77.3641 67.6633 77.3641 68.4725C77.3641 69.2506 76.8351 69.9198 75.6217 69.9198ZM89.4828 74.6195L86.0447 65.2978C85.9047 64.971 85.7492 64.8154 85.4069 64.8154H83.9135C83.5713 64.8154 83.4 64.971 83.2756 65.2978L79.822 74.6195C79.7442 74.8062 79.7442 75.0553 80.0864 75.0553H81.7199C82.0622 75.0553 82.1867 74.9619 82.3111 74.5884L82.7467 73.359H86.5581L86.9937 74.5884C87.1182 74.9618 87.2426 75.0553 87.5848 75.0553H89.2184C89.5606 75.0553 89.5606 74.8063 89.4828 74.6195H89.4828ZM83.4934 71.1803L84.6602 67.7411L85.827 71.1803H83.4934ZM99.2525 74.5547L97.059 71.3593C98.0234 71.0325 99.2213 69.8939 99.2213 68.2572C99.2213 67.2586 98.8947 66.3716 98.319 65.8114C97.6657 65.1578 96.919 64.8154 95.2233 64.8154H91.3029C90.9452 64.8154 90.8673 64.9865 90.8673 65.2667V74.6014C90.8673 74.9619 91.0228 75.0553 91.3029 75.0553H92.8431C93.1231 75.0553 93.2942 74.9619 93.2942 74.6014V66.9941H95.3632C96.1722 66.9941 96.7945 67.5077 96.7945 68.3195C96.7945 69.0509 96.0789 69.5826 95.3166 69.5826H95.0054C94.6476 69.5826 94.5542 69.7538 94.5542 70.0339V71.2815C94.5542 71.7173 94.5854 71.8884 94.7254 72.0751L96.4054 74.5858C96.6233 74.9152 96.81 75.0553 97.1833 75.0553H99.019C99.3145 75.0553 99.3924 74.7725 99.2524 74.5547H99.2525ZM109.753 64.8154H107.653C107.295 64.8154 107.186 64.8465 106.875 65.1889L103.655 68.737V65.2667C103.655 64.9088 103.484 64.8154 103.219 64.8154H101.679C101.384 64.8154 101.228 64.9087 101.228 65.2667V74.604C101.228 74.9618 101.384 75.0553 101.679 75.0553H103.219C103.484 75.0553 103.655 74.9619 103.655 74.604V71.8339L104.62 70.8223C105.46 72.2229 106.844 74.5573 106.844 74.5573C107.046 74.8841 107.249 75.0553 107.622 75.0553H109.52C109.816 75.0553 109.878 74.7596 109.753 74.5573L106.409 69.0483L109.909 65.2511C110.049 65.1111 110.049 64.8154 109.753 64.8154H109.753Z" fill="white"/>
<path d="M29.6612 79.0119H28.8617C28.7254 79.0119 28.684 79.0238 28.5655 79.1541L27.3395 80.5049V79.1837C27.3395 79.0474 27.2743 79.0119 27.1737 79.0119H26.5874C26.4749 79.0119 26.4155 79.0475 26.4155 79.1837V82.7385C26.4155 82.8747 26.4748 82.9103 26.5874 82.9103H27.1737C27.2743 82.9103 27.3395 82.8747 27.3395 82.7385V81.6839L27.7067 81.2988C28.0265 81.832 28.5537 82.7207 28.5537 82.7207C28.6307 82.8451 28.7076 82.9103 28.8497 82.9103H29.5723C29.6849 82.9103 29.7085 82.7977 29.6611 82.7207L28.3877 80.6234L29.7204 79.1778C29.7737 79.1245 29.7737 79.0119 29.6612 79.0119ZM30.4489 81.7668C30.4311 81.9979 30.3956 82.1638 30.1172 82.1638C30.0106 82.1638 29.9869 82.223 29.9869 82.3237V82.7681C29.9869 82.8984 30.0106 82.934 30.1646 82.934C31.0885 82.9518 31.2958 82.7326 31.3609 81.7728L31.4912 79.8414H32.4389V82.7385C32.4389 82.8748 32.504 82.9103 32.6106 82.9103H33.1969C33.3036 82.9103 33.3686 82.8747 33.3686 82.7385V79.1837C33.3686 79.0475 33.3035 79.012 33.1969 79.012H30.8339C30.7273 79.012 30.662 79.0475 30.662 79.1837L30.4489 81.7669V81.7668ZM37.4198 79.0119H36.7624C36.6083 79.0119 36.5728 79.0652 36.5136 79.1896L36.1109 80.0181L35.7495 80.8218L35.3942 80.0122L34.9796 79.1659C34.9263 79.0415 34.8789 79.0119 34.7486 79.0119H34.0438C33.9313 79.0119 33.9077 79.1067 33.9373 79.1837L35.258 81.8221L34.8138 82.7266C34.7665 82.7977 34.796 82.9103 34.8848 82.9103H35.5423C35.6726 82.9103 35.7259 82.8984 35.8028 82.7444L37.5263 79.1837C37.556 79.1066 37.5322 79.0119 37.4197 79.0119H37.4198ZM38.249 79.0119C38.1423 79.0119 38.0771 79.0475 38.0771 79.1837V82.7385C38.0771 82.8451 38.1126 82.9103 38.249 82.9103H39.765C40.7838 82.9103 41.3227 82.5133 41.3227 81.6601C41.3227 80.8189 40.8252 80.4516 39.7768 80.4516H39.007V79.8117H40.7897C40.9259 79.8117 40.9613 79.7465 40.9613 79.6399V79.1837C40.9613 79.0771 40.9258 79.0119 40.7897 79.0119H38.2489H38.249ZM39.7769 81.2277C40.2389 81.2277 40.4166 81.3581 40.4166 81.6542C40.4166 81.9623 40.2034 82.0927 39.7591 82.0927H39.007V81.2277H39.7769ZM45.048 79.0119H44.4617C44.355 79.0119 44.2898 79.0475 44.2898 79.1837V80.5226H42.9691V79.1837C42.9691 79.0474 42.91 79.0119 42.7974 79.0119H42.2112C42.1045 79.0119 42.0394 79.0475 42.0394 79.1837V82.7385C42.0394 82.8747 42.1045 82.9103 42.2112 82.9103H42.7974C42.91 82.9103 42.9691 82.8747 42.9691 82.7385V81.3995H44.2898V82.7385C44.2898 82.8747 44.355 82.9103 44.4617 82.9103H45.048C45.1545 82.9103 45.2197 82.8747 45.2197 82.7385V79.1837C45.2197 79.0474 45.1545 79.0119 45.048 79.0119ZM47.6006 82.9103C48.6194 82.9103 49.1523 82.4008 49.1523 81.5832C49.1523 80.7419 48.6074 80.2738 47.5947 80.2738H47.0262V79.1837C47.0262 79.0475 46.9609 79.012 46.8545 79.012H46.2681C46.1615 79.012 46.0964 79.0475 46.0964 79.1837V82.7385C46.0964 82.8452 46.1319 82.9103 46.2681 82.9103H47.6006H47.6006ZM47.5946 81.0737C48.0565 81.0737 48.258 81.2811 48.258 81.5773C48.258 81.8854 48.0565 82.075 47.5946 82.075H47.0261V81.0737H47.5946ZM50.6448 79.1837C50.6448 79.0475 50.5796 79.012 50.473 79.012H49.8867C49.78 79.012 49.715 79.0475 49.715 79.1837V82.7385C49.715 82.8748 49.7801 82.9103 49.8867 82.9103H50.473C50.5796 82.9103 50.6448 82.8747 50.6448 82.7385V79.1837ZM51.699 79.012H52.2676C52.3742 79.012 52.4393 79.0475 52.4393 79.1837V81.2396L53.6949 79.2134C53.7718 79.0949 53.8133 79.0119 53.9614 79.0119H54.5181C54.6543 79.0119 54.6898 79.0771 54.6898 79.1837V82.7385C54.6898 82.8747 54.6247 82.9103 54.5181 82.9103H53.9318C53.8251 82.9103 53.7601 82.8747 53.7601 82.7385V80.6767L52.5044 82.7089C52.4275 82.8273 52.386 82.9103 52.238 82.9103H51.699C51.5628 82.9103 51.5272 82.8451 51.5272 82.7385V79.1837C51.5272 79.0475 51.5924 79.012 51.699 79.012ZM54.1035 77.75H53.8074C53.7482 77.75 53.7304 77.8033 53.7127 77.8448C53.6297 78.0403 53.3928 78.1351 53.1855 78.1351C52.9783 78.1351 52.7354 78.0403 52.6584 77.8448C52.6407 77.8033 52.6229 77.75 52.5637 77.75H52.2675C52.1906 77.75 52.2083 77.8567 52.2142 77.8685C52.2794 78.3662 52.6999 78.5913 53.1855 78.5972C53.6713 78.5913 54.0857 78.3662 54.1569 77.8685C54.1569 77.8566 54.1746 77.75 54.1035 77.75ZM60.1742 79.012H57.3373C57.2307 79.012 57.1654 79.0475 57.1654 79.1837V82.7385C57.1654 82.8748 57.2307 82.9103 57.3373 82.9103H57.9236C58.0361 82.9103 58.0953 82.8747 58.0953 82.7385V79.8414H59.4161V82.7385C59.4161 82.8748 59.4812 82.9103 59.5878 82.9103H60.1741C60.2807 82.9103 60.3459 82.8747 60.3459 82.7385V79.1837C60.3459 79.0475 60.2807 79.012 60.1741 79.012H60.1742ZM64.2845 80.262C64.2845 79.326 63.396 78.9231 62.6913 78.9231C61.9866 78.9231 61.11 79.326 61.11 80.262V81.6602C61.11 82.5963 61.9866 82.9992 62.6913 82.9992C63.3961 82.9992 64.2845 82.5963 64.2845 81.6602V80.262ZM63.3547 81.5773C63.3547 81.9565 63.0822 82.1757 62.6913 82.1757C62.3064 82.1757 62.0339 81.9565 62.0339 81.5773V80.345C62.0339 79.9658 62.3064 79.7466 62.6913 79.7466C63.0822 79.7466 63.3547 79.9658 63.3547 80.345V81.5773ZM68.0452 81.755C68.0452 81.6129 67.9978 81.5536 67.8676 81.5536H67.2872C67.1569 81.5536 67.1451 81.6483 67.1273 81.7668C67.0799 82.0512 66.8253 82.1697 66.5055 82.1697C66.1146 82.1697 65.848 81.9564 65.848 81.5773V80.3449C65.848 79.9717 66.1146 79.7525 66.5055 79.7525C66.8253 79.7525 66.9911 79.8413 67.1155 80.0368C67.1629 80.108 67.1688 80.2205 67.2932 80.2205H67.8617C67.9979 80.2205 68.0453 80.1909 68.0453 80.0487C67.9684 79.2963 67.2399 78.923 66.5055 78.923C65.8006 78.923 64.9182 79.3318 64.9182 80.2619V81.6601C64.9182 82.5903 65.8007 82.9991 66.5055 82.9991C67.2399 82.9991 68.0453 82.5191 68.0453 81.7549L68.0452 81.755ZM71.6106 82.0809H69.7214V81.2989H71.3086C71.4448 81.2989 71.4803 81.2337 71.4803 81.127V80.6649C71.4803 80.5582 71.4447 80.4931 71.3086 80.4931H69.7214V79.8474H71.51C71.6462 79.8474 71.6817 79.7822 71.6817 79.6755V79.1838C71.6817 79.0772 71.6462 79.012 71.51 79.012H68.9573C68.821 79.012 68.7855 79.0772 68.7855 79.1838V82.7386C68.7855 82.8452 68.821 82.9104 68.9573 82.9104H71.6105C71.7468 82.9104 71.7824 82.8452 71.7824 82.7386V82.2527C71.7824 82.1461 71.7468 82.081 71.6105 82.081L71.6106 82.0809ZM72.659 81.7669C72.6413 81.998 72.6057 82.1638 72.3274 82.1638C72.2207 82.1638 72.1971 82.223 72.1971 82.3238V82.7682C72.1971 82.8985 72.2207 82.9341 72.3747 82.9341C73.2987 82.9518 73.5059 82.7326 73.5711 81.7728L73.7014 79.8414H74.649V82.7386C74.649 82.8749 74.7142 82.9104 74.8207 82.9104H75.407C75.5136 82.9104 75.5789 82.8748 75.5789 82.7386V79.1838C75.5789 79.0475 75.5136 79.012 75.407 79.012H73.044C72.9373 79.012 72.8723 79.0476 72.8723 79.1838L72.6591 81.7669L72.659 81.7669ZM79.5174 80.262C79.5174 79.326 78.6289 78.9231 77.9241 78.9231C77.2194 78.9231 76.3428 79.326 76.3428 80.262V81.6602C76.3428 82.5963 77.2194 82.9992 77.9241 82.9992C78.6289 82.9992 79.5174 82.5963 79.5174 81.6602V80.262ZM78.5875 81.5773C78.5875 81.9565 78.3151 82.1757 77.9241 82.1757C77.5392 82.1757 77.2668 81.9565 77.2668 81.5773V80.345C77.2668 79.9658 77.5392 79.7466 77.9241 79.7466C78.3151 79.7466 78.5875 79.9658 78.5875 80.345V81.5773ZM83.5209 79.012H82.7214C82.5851 79.012 82.5436 79.0238 82.4252 79.1541L81.1993 80.505V79.1837C81.1993 79.0475 81.1341 79.012 81.0334 79.012H80.4471C80.3346 79.012 80.2754 79.0475 80.2754 79.1837V82.7385C80.2754 82.8748 80.3346 82.9103 80.4471 82.9103H81.0334C81.1341 82.9103 81.1993 82.8747 81.1993 82.7385V81.6839L81.5665 81.2989C81.8863 81.8321 82.4134 82.7208 82.4134 82.7208C82.4904 82.8452 82.5674 82.9104 82.7096 82.9104H83.4321C83.5446 82.9104 83.5683 82.7978 83.5209 82.7208L82.2476 80.6235L83.5802 79.1779C83.6335 79.1245 83.6335 79.012 83.5209 79.012H83.5209Z" fill="white"/>
<path fill-rule="evenodd" clip-rule="evenodd" d="M1.27022 79.752H22.4468C22.7893 79.752 23.0693 80.0323 23.0693 80.3748V80.3749C23.0693 80.7175 22.7893 80.9978 22.4468 80.9978H1.27022C0.92775 80.9978 0.647583 80.7175 0.647583 80.3749V80.3748C0.647583 80.0322 0.927695 79.752 1.27022 79.752ZM87.6024 79.752H108.779C109.121 79.752 109.401 80.0323 109.401 80.3748V80.3749C109.401 80.7175 109.121 80.9978 108.779 80.9978H87.6024C87.2598 80.9978 86.9798 80.7175 86.9798 80.3749V80.3748C86.9798 80.0322 87.2597 79.752 87.6024 79.752Z" fill="white" stroke="white" stroke-width="0.755866" stroke-miterlimit="22.9256"/>
<path fill-rule="evenodd" clip-rule="evenodd" d="M55.3132 17.5432L38.09 28.2802H74.1524V21.8551L81.063 26.1118C81.8841 26.6175 82.9714 26.3529 83.4741 25.5314L83.4743 25.5312C83.7941 25.0085 83.8043 24.3781 83.5581 23.8592L92.6169 29.4388V53.5858H74.1523V31.9246H87.5764C88.064 31.9246 88.4631 31.5253 88.4631 31.0375V31.0374C88.4631 30.5495 88.064 30.1503 87.5764 30.1503H22.4801C21.9923 30.1503 21.5932 30.5495 21.5932 31.0374V31.0375C21.5932 31.5255 21.9924 31.9246 22.4801 31.9246H35.9042V53.5858H17.8258V29.1805C20.4444 27.5632 23.3467 25.7716 26.5202 23.8146C26.2517 24.3418 26.2531 24.9934 26.5822 25.5312L26.5825 25.5314C27.0851 26.3529 28.1724 26.6175 28.9935 26.1118L35.9042 21.8552V28.2802H37.6779V20.7628L55.0281 10.0761L72.3785 20.7627V28.182L55.313 17.5433L55.3132 17.5432ZM67.4756 11.8302C67.5365 11.2461 68.0336 10.7869 68.6329 10.7869H71.5775C71.8871 10.7869 72.1696 10.9095 72.3787 11.1087V0.948589C72.3787 0.460618 72.7777 0.0615234 73.2654 0.0615234H73.2655C73.7532 0.0615234 74.1524 0.460783 74.1524 0.948589V15.9226C83.8789 21.8868 89.4327 25.3025 92.6171 27.2703V14.4411C92.6171 13.9531 93.0161 13.554 93.5038 13.554H93.5039C93.9916 13.554 94.3907 13.9533 94.3907 14.4411V28.3686C100.902 32.4113 90.6129 26.1849 108.475 37.1222C108.89 37.3764 109.022 37.9265 108.768 38.3419V38.3421C108.514 38.7575 107.964 38.8913 107.549 38.6355L94.3907 30.5312V53.5857H108.948C109.436 53.5857 109.835 53.9849 109.835 54.4728V54.4729C109.835 54.9608 109.436 55.3599 108.948 55.3599H94.3907V59.8987C94.3907 60.3857 93.9907 60.7858 93.5038 60.7858H93.5037C93.0168 60.7858 92.617 60.3866 92.617 59.8987V55.3599H74.1524V59.8907C74.1524 60.3785 73.7532 60.7777 73.2654 60.7777H73.2654C72.7776 60.7777 72.3786 60.3786 72.3786 59.8907V55.3599H37.678V59.8907C37.678 60.3785 37.2788 60.7777 36.7911 60.7777H36.791C36.3033 60.7777 35.9043 60.3786 35.9043 59.8907V55.3599H17.8259V59.8987C17.8259 60.3857 17.426 60.7858 16.939 60.7858H16.9389C16.4521 60.7858 16.0522 60.3866 16.0522 59.8987V55.3599H1.10844C0.620638 55.3599 0.22168 54.9608 0.22168 54.4729V54.4728C0.22168 53.9848 0.620693 53.5857 1.10844 53.5857H16.0522V30.276C9.38998 34.3916 4.78902 37.2389 2.50812 38.6355C2.09213 38.8902 1.54301 38.7575 1.28877 38.3421L1.28866 38.3419C1.03449 37.9265 1.16691 37.3764 1.58213 37.1222C19.7802 25.9789 8.76146 32.6487 16.0522 28.1285V14.4412C16.0522 13.9532 16.4513 13.5541 16.9389 13.5541H16.939C17.4268 13.5541 17.8259 13.9534 17.8259 14.4412V27.0313C21.0649 25.0309 26.5543 21.6556 35.9043 15.9225V0.948644C35.9043 0.460673 36.3033 0.0615784 36.791 0.0615784H36.7911C37.2788 0.0615784 37.678 0.460838 37.678 0.948644V14.8351C40.6814 12.9938 44.0457 10.9322 47.8343 8.61158L55.0282 4.20483L61.1453 7.95173C63.397 9.33106 65.503 10.6213 67.4756 11.8302H67.4756ZM50.849 31.8913H54.1415V37.3229H48.7118V34.0292C48.7118 32.8533 49.6735 31.8913 50.849 31.8913ZM55.9152 31.8913H59.2077C60.3831 31.8913 61.3449 32.8533 61.3449 34.0292V37.3229H55.9152V31.8913ZM61.3449 39.0972V42.3908C61.3449 43.5666 60.3831 44.5286 59.2077 44.5286H55.9152V39.0972H61.3449ZM54.1415 44.5286H50.849C49.6735 44.5286 48.7118 43.5666 48.7118 42.3908V39.0972H54.1415V44.5286Z" fill="white" stroke="white" stroke-width="0.755866" stroke-miterlimit="22.9256"/>
</g>
<defs>
<clipPath id="clip0_147_175">
<rect width="110" height="83" fill="white"/>
</clipPath>
</defs>
</svg>
