<svg width="42" height="53" viewBox="0 0 42 53" fill="none" xmlns="http://www.w3.org/2000/svg">
<path d="M21 11C12.3129 11 5.25 18.0629 5.25 26.75C5.25 38.3656 19.7777 52.1797 20.4012 52.7621C20.5734 52.918 20.7867 53 21 53C21.2133 53 21.4348 52.918 21.5988 52.7621C22.2223 52.1797 36.75 38.3656 36.75 26.75C36.75 18.0629 29.6871 11 21 11ZM21 35.5027C16.1766 35.5027 12.2473 31.5734 12.2473 26.75C12.2473 21.9266 16.1766 17.9973 21 17.9973C25.8234 17.9973 29.7527 21.9266 29.7527 26.75C29.7527 31.5734 25.8234 35.5027 21 35.5027Z" fill="#313E48"/>
<circle cx="21" cy="21" r="20" fill="white" stroke="#313E48" stroke-width="2"/>
</svg>
