<svg width="25" height="24" viewBox="0 0 25 24" fill="none" xmlns="http://www.w3.org/2000/svg">
<path d="M13.5 2.7998C13.5 2.1998 13.1 1.7998 12.5 1.7998C11.9 1.7998 11.5 2.1998 11.5 2.7998V10.9998H3.30005C2.70005 10.9998 2.30005 11.3998 2.30005 11.9998C2.30005 12.5998 2.70005 12.9998 3.30005 12.9998H11.5V21.1998C11.5 21.7998 11.9 22.1998 12.5 22.1998C13.1 22.1998 13.5 21.7998 13.5 21.1998V12.9998H21.7001C22.3001 12.9998 22.7001 12.5998 22.7001 11.9998C22.7001 11.3998 22.3001 10.9998 21.7001 10.9998H13.5V2.7998Z" fill="#313E48"/>
</svg>
