<svg width="129" height="133" viewBox="0 0 129 133" fill="none" xmlns="http://www.w3.org/2000/svg">
<path d="M105.362 94.0994C106.072 93.0441 106.944 92.2425 107.978 91.6944C109.016 91.1631 110.107 90.9281 111.251 90.9897C112.389 91.0612 113.471 91.4419 114.496 92.132C115.522 92.822 116.279 93.6856 116.767 94.7228C117.255 95.76 117.443 96.8558 117.332 98.0102C117.223 99.1813 116.814 100.294 116.104 101.35C115.528 102.206 114.853 102.887 114.078 103.393C113.304 103.899 112.469 104.205 111.573 104.311L111.238 102.262C112.563 102.055 113.598 101.399 114.341 100.294C114.824 99.577 115.097 98.8276 115.16 98.0458C115.233 97.2706 115.098 96.5361 114.755 95.8424C114.412 95.1486 113.887 94.5639 113.18 94.0883C112.473 93.6126 111.734 93.3465 110.962 93.2899C110.19 93.2333 109.454 93.3816 108.753 93.7347C108.063 94.0945 107.476 94.6328 106.994 95.3496C106.25 96.4547 106.037 97.6636 106.354 98.9762L104.316 99.4267C104.076 98.557 104.049 97.6633 104.232 96.7455C104.409 95.8376 104.786 94.9556 105.362 94.0994Z" fill="white"/>
<path d="M92.8951 106.974L98.2075 113.418L97.0228 105.449L97.8298 104.787L105.346 107.42L100.117 101.047L101.828 99.6425L109.821 109.382L108.333 110.604L99.1913 107.325L100.666 116.896L99.191 118.107L91.1697 108.39L92.8951 106.974Z" fill="white"/>
<path d="M83.5236 111.505C84.7189 111.036 85.8976 110.87 87.06 111.007C88.2267 111.155 89.2634 111.579 90.1703 112.281C91.0815 112.993 91.7607 113.919 92.2078 115.058C92.6549 116.198 92.7845 117.333 92.5966 118.464C92.4131 119.606 91.9419 120.622 91.1828 121.513C90.4282 122.415 89.4532 123.1 88.258 123.569C87.0627 124.038 85.8817 124.199 84.715 124.051C83.5527 123.914 82.5181 123.495 81.6113 122.794C80.7045 122.093 80.0253 121.167 79.5738 120.016C79.1223 118.866 78.9905 117.725 79.1784 116.594C79.3663 115.463 79.8375 114.447 80.5922 113.545C81.3512 112.654 82.3283 111.974 83.5236 111.505ZM84.2732 113.415C83.4913 113.722 82.8555 114.172 82.3658 114.763C81.8805 115.366 81.5819 116.051 81.4699 116.816C81.3623 117.593 81.462 118.373 81.7688 119.155C82.0757 119.937 82.5306 120.57 83.1335 121.056C83.7409 121.552 84.4253 121.851 85.1867 121.952C85.9525 122.064 86.7264 121.966 87.5084 121.659C88.2903 121.352 88.9239 120.897 89.4092 120.295C89.8989 119.703 90.1975 119.018 90.3051 118.241C90.4171 117.476 90.3196 116.702 90.0128 115.92C89.7059 115.138 89.2488 114.499 88.6415 114.002C88.0385 113.517 87.3541 113.218 86.5883 113.106C85.8269 113.005 85.0552 113.108 84.2732 113.415Z" fill="white"/>
<path d="M67.4743 125.88L71.6242 125.414L70.4395 114.861L72.747 114.602L73.9317 125.155L78.0637 124.692L78.2846 126.659L67.6951 127.848L67.4743 125.88Z" fill="white"/>
<path d="M57.8697 127.181C56.7865 127.042 55.869 126.744 55.1171 126.285C54.3534 125.824 53.7999 125.233 53.4566 124.512C53.1133 123.79 53.0002 122.971 53.1174 122.055C53.2331 121.15 53.5485 120.386 54.0638 119.762C54.5775 119.151 55.2619 118.718 56.117 118.464C56.9601 118.209 57.9233 118.151 59.0065 118.289L61.8275 118.65L62.2886 115.043L64.6097 115.34L63.0118 127.838L57.8697 127.181ZM58.8625 120.267C57.8507 120.138 57.0556 120.254 56.4771 120.615C55.8986 120.977 55.5583 121.556 55.4564 122.354C55.3544 123.151 55.5379 123.798 56.0068 124.293C56.4758 124.789 57.2162 125.101 58.2279 125.231L60.9418 125.578L61.5764 120.614L58.8625 120.267Z" fill="white"/>
<path d="M42.7332 111.756L43.4568 109.932L52.2406 113.417L47.5939 125.129L39.0442 121.737L39.7678 119.913L46.1424 122.442L47.3505 119.397L41.6954 117.153L42.4057 115.363L48.0608 117.607L49.342 114.378L42.7332 111.756Z" fill="white"/>
<path d="M27.9972 112.337L31.4273 114.718L37.4847 105.995L39.3919 107.32L33.3346 116.043L36.7499 118.414L35.6205 120.041L26.8679 113.963L27.9972 112.337Z" fill="white"/>
<path d="M22.8391 103.808C21.838 102.675 21.3276 101.581 21.3079 100.525C21.2712 99.469 21.752 98.4998 22.7502 97.6179C23.7934 96.6963 24.8878 96.3219 26.0333 96.4948C27.1698 96.6756 28.2704 97.3686 29.335 98.5736L32.9223 102.634L23.4796 110.976L21.9542 109.25L25.1512 106.425L22.8391 103.808ZM28.0576 99.8463C27.4537 99.1629 26.8316 98.7758 26.1911 98.6852C25.5506 98.5946 24.929 98.8154 24.3265 99.3477C23.1844 100.357 23.241 101.572 24.4964 102.993L26.4866 105.245L30.0479 102.099L28.0576 99.8463Z" fill="white"/>
<path d="M5.22462 75.6705L17.5024 72.8394L18.0201 75.0845L7.67168 77.4707L9.13983 83.8376L19.4883 81.4514L20.006 83.6965L7.72815 86.5276L5.22462 75.6705Z" fill="white"/>
<path d="M5.20503 57.9153L17.781 58.6926L17.6389 60.9922L7.03912 60.337L6.73263 65.2956L9.86997 65.5977C11.6269 65.7664 13.0493 65.9986 14.1371 66.2943C15.213 66.5892 16.0228 67.006 16.5666 67.5445C17.0985 68.0824 17.337 68.7944 17.2822 69.6807C17.2629 69.9921 17.1768 70.4136 17.0237 70.9452L15.0036 70.658C15.0611 70.5053 15.0962 70.3271 15.1087 70.1235C15.1539 69.3929 14.7546 68.8512 13.9107 68.4985C13.0556 68.133 11.6961 67.8566 9.83209 67.6693L4.63314 67.1676L5.20503 57.9153Z" fill="white"/>
<path d="M18.169 47.393L16.0893 53.3398L18.4319 55.4748L17.6357 57.7516L7.61371 48.24L8.37428 46.0652L22.1456 44.8554L21.3375 47.1662L18.169 47.393ZM16.1805 47.5175L10.1969 47.942L14.6177 51.9861L16.1805 47.5175Z" fill="white"/>
<path d="M18.9687 27.3507L29.2119 34.688L27.8493 36.5903L23.4593 33.4457L19.6649 38.7429L24.0548 41.8875L22.6922 43.7898L12.449 36.4525L13.8116 34.5502L18.0406 37.5795L21.835 32.2822L17.606 29.253L18.9687 27.3507Z" fill="white"/>
<path d="M44.5228 9.38738L49.8176 20.8209L47.7269 21.7891L43.2641 12.1523L37.335 14.898L41.7978 24.5348L39.7071 25.503L34.4123 14.0695L44.5228 9.38738Z" fill="white"/>
<path d="M58.4282 19.1278C57.1565 19.3053 55.9715 19.192 54.8731 18.7879C53.773 18.372 52.8638 17.7174 52.1454 16.8241C51.4254 15.919 50.9808 14.8603 50.8116 13.648C50.6424 12.4358 50.781 11.3017 51.2273 10.2459C51.672 9.17818 52.3672 8.29964 53.313 7.61029C54.2571 6.90905 55.365 6.46968 56.6367 6.29219C57.9084 6.1147 59.0942 6.23392 60.1943 6.64984C61.2927 7.05389 62.2011 7.70255 62.9194 8.59582C63.6378 9.48909 64.0824 10.5478 64.2533 11.7719C64.4242 12.9961 64.2864 14.136 63.8401 15.1919C63.3937 16.2477 62.6985 17.1263 61.7544 17.8275C60.8086 18.5169 59.6999 18.9503 58.4282 19.1278ZM58.1445 17.0955C58.9765 16.9794 59.6995 16.6906 60.3136 16.2293C60.9261 15.7561 61.376 15.1602 61.6635 14.4416C61.9492 13.711 62.0341 12.9298 61.9179 12.0979C61.8018 11.2659 61.5072 10.5437 61.034 9.93128C60.5591 9.30693 59.9632 8.85698 59.2462 8.58145C58.5276 8.29403 57.7523 8.20837 56.9203 8.32449C56.0884 8.4406 55.3662 8.73527 54.7537 9.20847C54.1396 9.66979 53.6897 10.2657 53.4039 10.9962C53.1165 11.7149 53.0308 12.4901 53.147 13.3221C53.2631 14.154 53.5586 14.8822 54.0334 15.5065C54.5066 16.119 55.1025 16.5689 55.8212 16.8563C56.5382 17.1319 57.3126 17.2116 58.1445 17.0955Z" fill="white"/>
<path d="M72.8289 19.1033C71.5691 18.9275 70.4663 18.4949 69.5205 17.8055C68.5883 17.106 67.899 16.2282 67.4527 15.1724C67.0182 14.1182 66.8864 12.9791 67.0573 11.7549C67.2281 10.5308 67.6727 9.47211 68.3911 8.57884C69.1095 7.68556 70.0119 7.03608 71.0984 6.63037C72.1985 6.21445 73.3784 6.0944 74.6382 6.27023C75.6603 6.41289 76.5684 6.72137 77.3624 7.19569C78.1565 7.67001 78.7974 8.28653 79.2852 9.04524L77.5912 10.2446C76.824 9.14396 75.7807 8.50159 74.4615 8.31746C73.6058 8.19803 72.8127 8.28119 72.0822 8.56695C71.3533 8.84083 70.7523 9.284 70.2791 9.89647C69.8059 10.5089 69.5104 11.2371 69.3926 12.0809C69.2749 12.9247 69.3597 13.7059 69.6471 14.4246C69.9345 15.1432 70.3904 15.74 71.0148 16.2148C71.6408 16.6778 72.3816 16.969 73.2373 17.0884C74.5565 17.2726 75.7366 16.9344 76.7775 16.0741L78.076 17.7093C77.3991 18.3054 76.6079 18.722 75.7024 18.9592C74.8088 19.1979 73.851 19.246 72.8289 19.1033Z" fill="white"/>
<path d="M89.0046 21.9104L88.2606 23.7259L79.5164 20.1424L84.2943 8.48346L92.8054 11.9714L92.0614 13.7868L85.7156 11.1863L84.4733 14.2176L90.1029 16.5247L89.3726 18.3068L83.743 15.9997L82.4256 19.2143L89.0046 21.9104Z" fill="white"/>
<path d="M106.345 21.0597L98.7484 31.1121L96.9103 29.723L103.313 21.2503L99.3496 18.255L97.3643 20.703C96.2529 22.0742 95.2735 23.1314 94.4259 23.8747C93.5857 24.6085 92.7908 25.0532 92.0415 25.2088C91.2993 25.3549 90.574 25.1603 89.8656 24.6249C89.6167 24.4368 89.313 24.1321 88.9545 23.7108L90.3101 22.1857C90.4056 22.3181 90.5347 22.4457 90.6975 22.5687C91.2815 23.0101 91.9536 22.9765 92.7139 22.4681C93.4909 21.9573 94.4725 20.9769 95.6586 19.5268L98.9494 15.4707L106.345 21.0597Z" fill="white"/>
<path d="M107.775 33.4267L106.344 31.5754L102.143 34.823L100.734 33.0001L110.702 25.2939L112.111 27.1168L107.939 30.3424L109.414 32.2507L115.799 31.8875L117.319 33.8528L109.86 34.1812L107.449 41.6871L105.831 39.5937L107.775 33.4267Z" fill="white"/>
<path d="M114.153 49.7319L111.764 43.9024L108.594 43.859L107.68 41.6271L121.489 42.0957L122.362 44.2276L112.86 54.2687L111.932 52.0036L114.153 49.7319ZM115.558 48.3195L119.754 44.0323L113.763 43.9391L115.558 48.3195Z" fill="white"/>
</svg>
