<svg width="19" height="21" viewBox="0 0 19 21" fill="none" xmlns="http://www.w3.org/2000/svg">
<g clip-path="url(#clip0_3_115)">
<path d="M17.4041 11.7639C16.9101 16.0222 13.9271 16.2944 13.3761 16.4889C13.1481 16.5667 10.9631 17.1306 8.24608 16.9556L5.28208 20.3194V16.45H5.26308C1.29208 15.2833 1.42508 10.9472 1.46308 8.67222C1.50108 6.39722 1.91908 4.53055 3.13508 3.26666C5.32008 1.20555 9.80408 1.51666 9.80408 1.51666C13.6041 1.53611 15.4091 2.72222 15.8271 3.13055C17.2141 4.375 17.9361 7.36944 17.4041 11.7639ZM16.8531 2.04166C16.3591 1.575 14.3451 0.0388859 9.86108 0.0194415C9.86108 0.0194415 4.57908 -0.311114 1.99508 2.15833C0.57008 3.65555 0.0570799 5.85277 0.0190799 8.575C-0.0379201 11.2972 -0.0949201 16.4111 4.59808 17.7917V19.9111C4.59808 19.9111 4.56008 20.7667 5.11108 20.9417C5.75708 21.1556 6.13708 20.4944 6.76408 19.7944C7.10608 19.4056 7.58108 18.8417 7.92308 18.4139C11.1341 18.7056 13.6041 18.0444 13.8891 17.9472C14.5351 17.7333 18.2021 17.2278 18.8101 12.1333C19.4181 6.88333 18.5061 3.53889 16.8531 2.04166Z" fill="white"/>
<path d="M13.9842 12.4055C13.9842 12.4055 13.3762 11.8805 13.0912 11.6472C12.8062 11.4333 12.3692 11.1417 12.1222 11.0055C11.6852 10.7528 11.2292 10.9083 11.0392 11.1611L10.6592 11.6667C10.4692 11.9194 10.1462 11.8805 10.0702 11.8611C9.50017 11.7055 8.89217 11.3555 8.26517 10.7333C7.63817 10.1111 7.25817 9.44999 7.12517 8.78888L7.10617 8.74999C7.06817 8.47777 7.10617 8.34166 7.22017 8.14722L7.23917 8.12777C7.50517 7.87499 7.98017 7.58333 8.05617 7.29166C8.24617 6.7861 7.41017 5.7361 7.29617 5.56111C7.29617 5.56111 6.68817 4.74444 6.47917 4.58888C6.25117 4.39444 5.89017 4.27777 5.52917 4.51111H5.51017C4.46517 5.23055 4.10417 5.63888 4.19917 6.2611L4.25617 6.51388C4.78817 8.20555 5.79517 10.0333 7.31517 11.6472C8.81617 13.2222 10.4502 14.175 12.0462 14.8361C12.4642 14.9722 12.9012 14.8555 13.3382 14.4667C13.6802 14.1361 13.9462 13.7861 14.1362 13.4167C14.3452 13.0278 14.2692 12.6583 13.9842 12.4055Z" fill="white"/>
<path d="M11.4952 8.67224C11.4382 8.67224 11.3812 8.61391 11.3812 8.55557C11.3622 8.10835 11.2482 7.7778 11.0392 7.54446C10.8302 7.31113 10.5262 7.19446 10.1272 7.17502C10.0702 7.17502 10.0132 7.11669 10.0132 7.03891C10.0132 6.96113 10.0702 6.92224 10.1462 6.92224C10.6212 6.94169 10.9822 7.09724 11.2292 7.36946C11.4762 7.64169 11.6092 8.03058 11.6472 8.53613C11.6282 8.61391 11.5712 8.67224 11.4952 8.67224Z" fill="white"/>
<path d="M12.6731 9.10003C12.5971 9.10003 12.5591 9.04169 12.5591 8.96392C12.5781 8.1278 12.3311 7.40836 11.8371 6.84447C11.5901 6.55281 11.2861 6.33892 10.9441 6.18336C10.6021 6.0278 10.2031 5.93058 9.74706 5.89169C9.69006 5.89169 9.63306 5.83336 9.63306 5.75558C9.63306 5.6778 9.69006 5.63892 9.76606 5.63892C10.7161 5.71669 11.4761 6.06669 12.0081 6.66947C12.5401 7.29169 12.8061 8.05003 12.7871 8.96392C12.8061 9.04169 12.7491 9.10003 12.6731 9.10003Z" fill="white"/>
<path d="M13.8892 9.5861C13.8322 9.5861 13.7752 9.52777 13.7752 9.46943C13.7752 8.73055 13.6612 8.04999 13.4522 7.46666C13.2432 6.88332 12.9202 6.37777 12.5022 5.94999C12.0842 5.52221 11.6092 5.19166 11.0962 4.97777C10.5832 4.76388 9.99417 4.64721 9.36717 4.64721C9.31017 4.64721 9.25317 4.58888 9.25317 4.53055C9.25317 4.45277 9.31017 4.41388 9.36717 4.41388C10.6782 4.43332 11.7802 4.88055 12.6732 5.79443C13.1102 6.24166 13.4522 6.7861 13.6802 7.40832C13.9082 8.03055 14.0222 8.73055 14.0222 9.50832C14.0222 9.52777 13.9652 9.5861 13.8892 9.5861Z" fill="white"/>
</g>
<defs>
<clipPath id="clip0_3_115">
<rect width="19" height="21" fill="white"/>
</clipPath>
</defs>
</svg>
