<svg width="19" height="21" viewBox="0 0 19 21" fill="none" xmlns="http://www.w3.org/2000/svg">
<g clip-path="url(#clip0_197_99)">
<path d="M17.4038 11.7639C16.9098 16.0222 13.9268 16.2944 13.3758 16.4889C13.1478 16.5667 10.9628 17.1306 8.24584 16.9556L5.28184 20.3194V16.45H5.26284C1.29184 15.2833 1.42484 10.9472 1.46284 8.67222C1.50084 6.39722 1.91884 4.53055 3.13484 3.26666C5.31984 1.20555 9.80383 1.51666 9.80383 1.51666C13.6038 1.53611 15.4088 2.72222 15.8268 3.13055C17.2138 4.375 17.9358 7.36944 17.4038 11.7639ZM16.8528 2.04166C16.3588 1.575 14.3448 0.0388859 9.86084 0.0194415C9.86084 0.0194415 4.57884 -0.311114 1.99484 2.15833C0.569836 3.65555 0.0568357 5.85277 0.0188357 8.575C-0.0381643 11.2972 -0.0951642 16.4111 4.59784 17.7917V19.9111C4.59784 19.9111 4.55984 20.7667 5.11084 20.9417C5.75684 21.1556 6.13684 20.4944 6.76383 19.7944C7.10583 19.4056 7.58084 18.8417 7.92284 18.4139C11.1338 18.7056 13.6038 18.0444 13.8888 17.9472C14.5348 17.7333 18.2018 17.2278 18.8098 12.1333C19.4178 6.88333 18.5058 3.53889 16.8528 2.04166Z" fill="#313E48"/>
<path d="M13.9837 12.4055C13.9837 12.4055 13.3757 11.8805 13.0907 11.6472C12.8057 11.4333 12.3687 11.1417 12.1217 11.0055C11.6847 10.7528 11.2287 10.9083 11.0387 11.1611L10.6587 11.6667C10.4687 11.9194 10.1457 11.8805 10.0697 11.8611C9.49968 11.7055 8.89168 11.3555 8.26468 10.7333C7.63768 10.1111 7.25768 9.44999 7.12468 8.78888L7.10568 8.74999C7.06768 8.47777 7.10568 8.34166 7.21968 8.14722L7.23868 8.12777C7.50468 7.87499 7.97968 7.58333 8.05568 7.29166C8.24568 6.7861 7.40968 5.7361 7.29568 5.56111C7.29568 5.56111 6.68768 4.74444 6.47868 4.58888C6.25068 4.39444 5.88968 4.27777 5.52868 4.51111H5.50968C4.46468 5.23055 4.10368 5.63888 4.19868 6.2611L4.25568 6.51388C4.78768 8.20555 5.79468 10.0333 7.31468 11.6472C8.81568 13.2222 10.4497 14.175 12.0457 14.8361C12.4637 14.9722 12.9007 14.8555 13.3377 14.4667C13.6797 14.1361 13.9457 13.7861 14.1357 13.4167C14.3447 13.0278 14.2687 12.6583 13.9837 12.4055Z" fill="#313E48"/>
<path d="M11.4947 8.67224C11.4377 8.67224 11.3807 8.61391 11.3807 8.55557C11.3617 8.10835 11.2477 7.7778 11.0387 7.54446C10.8297 7.31113 10.5257 7.19446 10.1267 7.17502C10.0697 7.17502 10.0127 7.11669 10.0127 7.03891C10.0127 6.96113 10.0697 6.92224 10.1457 6.92224C10.6207 6.94169 10.9817 7.09724 11.2287 7.36946C11.4757 7.64169 11.6087 8.03058 11.6467 8.53613C11.6277 8.61391 11.5707 8.67224 11.4947 8.67224Z" fill="#313E48"/>
<path d="M12.6728 9.10003C12.5968 9.10003 12.5588 9.04169 12.5588 8.96392C12.5778 8.1278 12.3308 7.40836 11.8368 6.84447C11.5898 6.55281 11.2858 6.33892 10.9438 6.18336C10.6018 6.0278 10.2028 5.93058 9.74681 5.89169C9.68981 5.89169 9.63281 5.83336 9.63281 5.75558C9.63281 5.6778 9.68981 5.63892 9.76581 5.63892C10.7158 5.71669 11.4758 6.06669 12.0078 6.66947C12.5398 7.29169 12.8058 8.05003 12.7868 8.96392C12.8058 9.04169 12.7488 9.10003 12.6728 9.10003Z" fill="#313E48"/>
<path d="M13.8889 9.5861C13.8319 9.5861 13.7749 9.52777 13.7749 9.46943C13.7749 8.73055 13.6609 8.04999 13.4519 7.46666C13.2429 6.88332 12.9199 6.37777 12.5019 5.94999C12.0839 5.52221 11.6089 5.19166 11.0959 4.97777C10.5829 4.76388 9.99393 4.64721 9.36693 4.64721C9.30993 4.64721 9.25293 4.58888 9.25293 4.53055C9.25293 4.45277 9.30993 4.41388 9.36693 4.41388C10.6779 4.43332 11.7799 4.88055 12.6729 5.79443C13.1099 6.24166 13.4519 6.7861 13.6799 7.40832C13.9079 8.03055 14.0219 8.73055 14.0219 9.50832C14.0219 9.52777 13.9649 9.5861 13.8889 9.5861Z" fill="#313E48"/>
</g>
<defs>
<clipPath id="clip0_197_99">
<rect width="19" height="21" fill="white"/>
</clipPath>
</defs>
</svg>
