<svg width="19" height="19" viewBox="0 0 19 19" fill="none" xmlns="http://www.w3.org/2000/svg">
<g clip-path="url(#clip0_197_95)">
<path d="M16.226 2.7602C14.44 0.983085 12.065 0 9.538 0C4.332 0 0.076 4.21592 0.076 9.41493C0.076 11.0786 0.513 12.6856 1.33 14.1224L0 19L5.016 17.6955C6.403 18.4517 7.961 18.8488 9.538 18.8488C14.744 18.8488 19 14.6328 19 9.43383C19 6.9005 18.012 4.53731 16.226 2.7602ZM9.538 17.2418C8.132 17.2418 6.745 16.8637 5.529 16.1453L5.244 15.9751L2.28 16.7692L3.078 13.8766L2.888 13.5741C2.109 12.3264 1.691 10.8896 1.691 9.41493C1.672 5.10448 5.206 1.58806 9.538 1.58806C11.647 1.58806 13.604 2.401 15.105 3.87562C16.587 5.35025 17.404 7.31642 17.404 9.41493C17.404 13.7254 13.87 17.2418 9.538 17.2418ZM13.851 11.3811C13.623 11.2677 12.445 10.7005 12.236 10.6249C12.027 10.5493 11.856 10.5114 11.704 10.7383C11.552 10.9652 11.096 11.4945 10.963 11.6647C10.83 11.8159 10.678 11.8348 10.45 11.7214C10.222 11.608 9.443 11.3622 8.55 10.5493C7.847 9.92537 7.372 9.15025 7.239 8.92338C7.106 8.69652 7.22 8.56418 7.334 8.45075C7.448 8.33731 7.562 8.16716 7.695 8.03483C7.809 7.90249 7.847 7.80796 7.923 7.63781C7.999 7.48657 7.961 7.33532 7.904 7.22189C7.847 7.10846 7.372 5.95522 7.182 5.48259C6.992 5.02886 6.802 5.08557 6.65 5.08557C6.517 5.08557 6.346 5.08557 6.194 5.08557C6.042 5.08557 5.776 5.14229 5.567 5.38806C5.358 5.61493 4.731 6.201 4.731 7.35423C4.731 8.50746 5.586 9.62289 5.7 9.79303C5.814 9.94428 7.372 12.3264 9.747 13.3473C10.317 13.593 10.754 13.7254 11.096 13.8388C11.666 14.009 12.179 13.99 12.578 13.9333C13.034 13.8577 13.984 13.3662 14.174 12.8179C14.364 12.2697 14.364 11.797 14.307 11.7025C14.25 11.5512 14.098 11.4945 13.851 11.3811Z" fill="#313E48"/>
</g>
<defs>
<clipPath id="clip0_197_95">
<rect width="19" height="19" fill="white"/>
</clipPath>
</defs>
</svg>
